<?xml version="1.0" encoding="UTF-8"?>
<!DOCTYPE svg PUBLIC "-//W3C//DTD SVG 1.1//EN" "http://www.w3.org/Graphics/SVG/1.1/DTD/svg11.dtd">
<svg xmlns="http://www.w3.org/2000/svg" version="1.1" width="630px" height="128px" style="shape-rendering:geometricPrecision; text-rendering:geometricPrecision; image-rendering:optimizeQuality; fill-rule:evenodd; clip-rule:evenodd" xmlns:xlink="http://www.w3.org/1999/xlink">
<g><path style="opacity:0.655" fill="#fd8986" d="M 68.5,6.5 C 68.5,6.83333 68.5,7.16667 68.5,7.5C 61.8333,7.5 55.1667,7.5 48.5,7.5C 54.971,5.40855 61.6377,5.07522 68.5,6.5 Z"/></g>
<g><path style="opacity:1" fill="#f63838" d="M 48.5,7.5 C 55.1667,7.5 61.8333,7.5 68.5,7.5C 78.9719,9.56978 88.6386,13.5698 97.5,19.5C 99.1667,20.5 100.5,21.8333 101.5,23.5C 102.757,26.4274 104.757,28.7607 107.5,30.5C 107.427,32.0269 108.094,33.0269 109.5,33.5C 110.675,37.1826 112.341,40.5159 114.5,43.5C 116.283,54.3943 116.95,65.3943 116.5,76.5C 115.167,79.1667 113.833,81.8333 112.5,84.5C 108.021,84.4641 103.688,83.6307 99.5,82C 97.8446,80.5557 97.178,78.7224 97.5,76.5C 97.4219,72.046 98.0886,67.7127 99.5,63.5C 96.9659,62.2234 94.4659,62.2234 92,63.5C 91.1744,66.7928 90.6744,70.1262 90.5,73.5C 89.8333,74.1667 89.1667,74.8333 88.5,75.5C 84.7036,71.2022 80.7036,67.0356 76.5,63C 73.3201,61.9639 70.8201,62.7972 69,65.5C 67.6346,72.4897 66.468,79.4897 65.5,86.5C 64.1667,86.5 62.8333,86.5 61.5,86.5C 62.5001,76.4991 63.5001,66.4991 64.5,56.5C 57.1365,56.1694 49.8032,56.5027 42.5,57.5C 40.5,60.5 38.5,63.5 36.5,66.5C 41.7921,67.4948 47.1254,67.8282 52.5,67.5C 52.5,69.8333 52.5,72.1667 52.5,74.5C 46.8236,74.6661 41.1569,74.4994 35.5,74C 31.658,69.5615 30.4913,64.3948 32,58.5C 33.331,56.0038 35.1644,54.0038 37.5,52.5C 44.9648,51.8985 52.2981,51.2319 59.5,50.5C 62.4032,46.3699 65.0699,42.0366 67.5,37.5C 68.5,37.5 69.5,37.5 70.5,37.5C 70.1984,40.0593 70.5318,42.3926 71.5,44.5C 73.6168,46.063 75.9501,47.3964 78.5,48.5C 76.417,49.9587 74.2503,51.2921 72,52.5C 71.3333,55.1667 71.3333,57.8333 72,60.5C 72.6708,59.7476 73.5041,59.4142 74.5,59.5C 81.6291,60.7767 88.6291,60.7767 95.5,59.5C 95.5,57.8333 95.5,56.1667 95.5,54.5C 92.5,53.8333 89.5,53.1667 86.5,52.5C 95.8087,49.0713 95.4754,46.4046 85.5,44.5C 89.6344,43.5151 93.9677,43.1818 98.5,43.5C 98.5,41.5 98.5,39.5 98.5,37.5C 85.9986,35.8844 73.332,34.3844 60.5,33C 55.4448,30.9488 50.6115,28.4488 46,25.5C 44.4345,24.9394 43.1011,25.6061 42,27.5C 41.6667,27.1667 41.3333,26.8333 41,26.5C 37.9819,29.5327 34.4819,31.6993 30.5,33C 25.295,33.2405 20.1283,33.7405 15,34.5C 14.2352,34.4301 13.7352,34.0967 13.5,33.5C 17.2196,26.9419 22.2196,21.4419 28.5,17C 35.1305,13.4798 41.7971,10.3131 48.5,7.5 Z"/></g>
<g><path style="opacity:0.482" fill="#fc8d8b" d="M 68.5,7.5 C 68.5,7.16667 68.5,6.83333 68.5,6.5C 79.7445,7.57099 89.4112,11.9043 97.5,19.5C 88.6386,13.5698 78.9719,9.56978 68.5,7.5 Z"/></g>
<g><path style="opacity:0.847" fill="#f63635" d="M 562.5,13.5 C 572.157,12.6577 575.99,16.9911 574,26.5C 573.167,28.6667 571.667,30.1667 569.5,31C 559.131,32.6326 554.964,28.466 557,18.5C 558.422,16.2575 560.255,14.5909 562.5,13.5 Z"/></g>
<g><path style="opacity:0.573" fill="#fd9391" d="M 48.5,7.5 C 41.7971,10.3131 35.1305,13.4798 28.5,17C 22.2196,21.4419 17.2196,26.9419 13.5,33.5C 12.8333,33.5 12.5,33.8333 12.5,34.5C 12.1667,34.5 11.8333,34.5 11.5,34.5C 19.564,19.785 31.8973,10.785 48.5,7.5 Z"/></g>
<g><path style="opacity:0.871" fill="#fb8280" d="M 101.5,23.5 C 104.243,25.2393 106.243,27.5726 107.5,30.5C 104.757,28.7607 102.757,26.4274 101.5,23.5 Z"/></g>
<g><path style="opacity:1" fill="#f63543" d="M 98.5,37.5 C 92.8333,37.5 87.1667,37.5 81.5,37.5C 74.4002,35.9237 67.0669,35.0904 59.5,35C 54.8359,33.8897 50.3359,32.3897 46,30.5C 41.7021,30.6689 38.2021,32.3356 35.5,35.5C 35.1667,35.5 34.8333,35.5 34.5,35.5C 26.9809,35.825 19.6476,35.4916 12.5,34.5C 12.5,33.8333 12.8333,33.5 13.5,33.5C 13.7352,34.0967 14.2352,34.4301 15,34.5C 20.1283,33.7405 25.295,33.2405 30.5,33C 34.4819,31.6993 37.9819,29.5327 41,26.5C 41.3333,26.8333 41.6667,27.1667 42,27.5C 43.1011,25.6061 44.4345,24.9394 46,25.5C 50.6115,28.4488 55.4448,30.9488 60.5,33C 73.332,34.3844 85.9986,35.8844 98.5,37.5 Z"/></g>
<g><path style="opacity:1" fill="#f6385d" d="M 81.5,37.5 C 77.8333,37.5 74.1667,37.5 70.5,37.5C 69.5,37.5 68.5,37.5 67.5,37.5C 67.1667,37.5 66.8333,37.5 66.5,37.5C 58.9497,36.7379 51.283,35.7379 43.5,34.5C 40.8236,34.837 38.157,35.1703 35.5,35.5C 38.2021,32.3356 41.7021,30.6689 46,30.5C 50.3359,32.3897 54.8359,33.8897 59.5,35C 67.0669,35.0904 74.4002,35.9237 81.5,37.5 Z"/></g>
<g><path style="opacity:0.314" fill="#fda5a3" d="M 107.5,30.5 C 108.906,30.9731 109.573,31.9731 109.5,33.5C 108.094,33.0269 107.427,32.0269 107.5,30.5 Z"/></g>
<g><path style="opacity:1" fill="#f8638f" d="M 66.5,37.5 C 59.1292,37.7647 51.7959,37.4314 44.5,36.5C 42.149,37.1734 39.8157,37.8401 37.5,38.5C 36.0998,37.8999 35.0998,36.8999 34.5,35.5C 34.8333,35.5 35.1667,35.5 35.5,35.5C 38.157,35.1703 40.8236,34.837 43.5,34.5C 51.283,35.7379 58.9497,36.7379 66.5,37.5 Z"/></g>
<g><path style="opacity:0.482" fill="#fb8988" d="M 109.5,33.5 C 112.201,36.2353 113.868,39.5686 114.5,43.5C 112.341,40.5159 110.675,37.1826 109.5,33.5 Z"/></g>
<g><path style="opacity:0.482" fill="#fb8685" d="M 11.5,34.5 C 11.5,35.1667 11.5,35.8333 11.5,36.5C 10.5,37.8333 9.5,39.1667 8.5,40.5C 8.46095,37.911 9.46095,35.911 11.5,34.5 Z"/></g>
<g><path style="opacity:1" fill="#f73b66" d="M 11.5,34.5 C 11.8333,34.5 12.1667,34.5 12.5,34.5C 19.6476,35.4916 26.9809,35.825 34.5,35.5C 35.0998,36.8999 36.0998,37.8999 37.5,38.5C 36.8333,38.5 36.1667,38.5 35.5,38.5C 27.2992,38.4833 19.2992,37.8167 11.5,36.5C 11.5,35.8333 11.5,35.1667 11.5,34.5 Z"/></g>
<g><path style="opacity:0.888" fill="#f63535" d="M 155.5,36.5 C 166.694,35.009 174.527,39.3423 179,49.5C 180.403,62.7817 180.903,76.115 180.5,89.5C 174.833,89.5 169.167,89.5 163.5,89.5C 163.667,78.1618 163.5,66.8284 163,55.5C 159.946,51.0576 156.113,50.3909 151.5,53.5C 150.416,54.6651 149.583,55.9984 149,57.5C 148.5,68.1615 148.333,78.8281 148.5,89.5C 143.167,89.5 137.833,89.5 132.5,89.5C 132.5,72.5 132.5,55.5 132.5,38.5C 137.975,37.9193 143.142,38.5859 148,40.5C 150.514,38.9958 153.014,37.6624 155.5,36.5 Z"/></g>
<g><path style="opacity:0.883" fill="#f63535" d="M 207.5,36.5 C 225.458,35.7894 234.792,44.4561 235.5,62.5C 235.247,64.8583 234.914,67.1917 234.5,69.5C 224.145,69.1681 213.812,69.5014 203.5,70.5C 206.519,77.0057 211.519,79.1724 218.5,77C 220.762,75.9532 222.929,74.7865 225,73.5C 228.134,76.3056 230.967,79.4723 233.5,83C 223.408,91.6798 212.075,93.6798 199.5,89C 187.646,78.4176 184.48,65.5842 190,50.5C 193.694,42.9551 199.527,38.2884 207.5,36.5 Z M 208.5,50.5 C 215.822,49.2491 219.822,51.9158 220.5,58.5C 214.794,58.8288 209.128,58.4954 203.5,57.5C 204.466,54.5314 206.133,52.198 208.5,50.5 Z"/></g>
<g><path style="opacity:0.885" fill="#f63535" d="M 329.5,36.5 C 337.837,36.0876 345.171,38.4209 351.5,43.5C 349.724,47.3934 347.724,51.0601 345.5,54.5C 341.703,52.371 337.703,51.0376 333.5,50.5C 331.681,50.3422 330.348,51.0089 329.5,52.5C 334.953,55.9393 340.62,59.106 346.5,62C 352.118,66.9288 353.951,73.0955 352,80.5C 345.564,90.3399 337.064,93.6733 326.5,90.5C 325.914,90.7093 325.414,91.0426 325,91.5C 321.763,89.4199 318.263,87.9199 314.5,87C 313.426,86.2613 312.759,85.2613 312.5,84C 314.148,80.0458 315.981,76.2125 318,72.5C 323.387,76.1402 329.221,77.4735 335.5,76.5C 336.747,74.9936 336.747,73.4936 335.5,72C 329.675,69.2547 324.008,66.2547 318.5,63C 312.676,56.5336 312.176,49.7003 317,42.5C 320.811,39.5089 324.978,37.5089 329.5,36.5 Z"/></g>
<g><path style="opacity:0.898" fill="#f63635" d="M 385.5,36.5 C 391.472,36.1574 396.805,37.824 401.5,41.5C 411.863,34.3579 421.697,35.0246 431,43.5C 433.34,47.5209 434.674,51.8543 435,56.5C 435.667,67.8333 435.667,79.1667 435,90.5C 429.593,89.5268 424.093,89.1934 418.5,89.5C 418.667,77.8286 418.5,66.1619 418,54.5C 415.277,50.8696 412.11,50.5362 408.5,53.5C 407.846,55.1151 407.346,56.7818 407,58.5C 406.5,68.828 406.334,79.1613 406.5,89.5C 401.167,89.5 395.833,89.5 390.5,89.5C 390.667,78.1618 390.5,66.8284 390,55.5C 386.333,50.1667 382.667,50.1667 379,55.5C 378.5,66.8284 378.333,78.1618 378.5,89.5C 372.907,89.8066 367.407,89.4732 362,88.5C 361.333,72.1667 361.333,55.8333 362,39.5C 366.737,38.5308 371.57,38.1975 376.5,38.5C 376.351,39.552 376.517,40.552 377,41.5C 379.682,39.415 382.516,37.7483 385.5,36.5 Z"/></g>
<g><path style="opacity:0.888" fill="#f63535" d="M 459.5,36.5 C 474.196,34.4127 483.363,40.4127 487,54.5C 487.5,66.1619 487.667,77.8286 487.5,89.5C 482.025,90.0807 476.858,89.4141 472,87.5C 461.994,93.5465 452.994,92.2132 445,83.5C 438.974,67.8815 444.14,58.5482 460.5,55.5C 463.966,56.0769 467.299,57.0769 470.5,58.5C 471.483,54.9708 470.15,52.4708 466.5,51C 460.526,49.8904 454.86,50.7238 449.5,53.5C 447.403,50.1488 445.403,46.6488 443.5,43C 448.444,39.6112 453.778,37.4445 459.5,36.5 Z M 461.5,68.5 C 464.493,68.4909 467.493,68.9909 470.5,70C 473.319,72.7195 472.986,75.0528 469.5,77C 466.5,77.6667 463.5,77.6667 460.5,77C 457.665,73.6955 457.999,70.8621 461.5,68.5 Z"/></g>
<g><path style="opacity:0.89" fill="#f63535" d="M 521.5,36.5 C 532.694,35.009 540.527,39.3423 545,49.5C 546.381,62.7876 546.881,76.121 546.5,89.5C 540.833,89.5 535.167,89.5 529.5,89.5C 529.667,78.1618 529.5,66.8284 529,55.5C 525.946,51.0576 522.113,50.3909 517.5,53.5C 516.416,54.6651 515.583,55.9984 515,57.5C 514.5,68.1615 514.333,78.8281 514.5,89.5C 509.167,89.5 503.833,89.5 498.5,89.5C 498.5,72.5 498.5,55.5 498.5,38.5C 503.975,37.9193 509.142,38.5859 514,40.5C 516.514,38.9958 519.014,37.6624 521.5,36.5 Z"/></g>
<g><path style="opacity:0.889" fill="#f63535" d="M 599.5,36.5 C 609.48,35.0214 617.647,38.0214 624,45.5C 625.562,47.9573 626.562,50.624 627,53.5C 627.5,65.4954 627.667,77.4954 627.5,89.5C 622.821,89.6658 618.155,89.4992 613.5,89C 613,88.5 612.5,88 612,87.5C 602.766,93.6871 594.099,92.6871 586,84.5C 578.496,68.8939 583.33,59.2272 600.5,55.5C 603.966,56.0769 607.299,57.0769 610.5,58.5C 611.459,54.2421 609.626,51.5755 605,50.5C 601.988,50.6239 598.821,50.7906 595.5,51C 593.385,51.5573 591.385,52.3906 589.5,53.5C 586.355,49.9265 585.022,45.9265 585.5,41.5C 590.14,39.4004 594.807,37.7337 599.5,36.5 Z M 601.5,68.5 C 604.568,68.5467 607.568,69.0467 610.5,70C 613.172,72.6788 612.838,75.0121 609.5,77C 606.5,77.6667 603.5,77.6667 600.5,77C 597.83,73.8385 598.163,71.0052 601.5,68.5 Z"/></g>
<g><path style="opacity:1" fill="#f9b6b8" d="M 70.5,37.5 C 74.1667,37.5 77.8333,37.5 81.5,37.5C 87.1667,37.5 92.8333,37.5 98.5,37.5C 98.5,39.5 98.5,41.5 98.5,43.5C 93.9677,43.1818 89.6344,43.5151 85.5,44.5C 84.7109,44.2172 84.0442,43.7172 83.5,43C 88.1548,42.5008 92.8215,42.3342 97.5,42.5C 97.5,41.1667 97.5,39.8333 97.5,38.5C 88.8333,38.5 80.1667,38.5 71.5,38.5C 71.5,40.5 71.5,42.5 71.5,44.5C 70.5318,42.3926 70.1984,40.0593 70.5,37.5 Z"/></g>
<g><path style="opacity:1" fill="#fef8f8" d="M 66.5,37.5 C 66.8333,37.5 67.1667,37.5 67.5,37.5C 65.0699,42.0366 62.4032,46.3699 59.5,50.5C 52.4921,50.3337 45.4921,50.5004 38.5,51C 37.944,51.3826 37.6107,51.8826 37.5,52.5C 35.1644,54.0038 33.331,56.0038 32,58.5C 30.4913,64.3948 31.658,69.5615 35.5,74C 41.1569,74.4994 46.8236,74.6661 52.5,74.5C 52.5,72.1667 52.5,69.8333 52.5,67.5C 47.1254,67.8282 41.7921,67.4948 36.5,66.5C 38.5,63.5 40.5,60.5 42.5,57.5C 49.8032,56.5027 57.1365,56.1694 64.5,56.5C 63.5001,66.4991 62.5001,76.4991 61.5,86.5C 52.6822,87.4933 43.6822,87.8266 34.5,87.5C 25.0349,82.9264 20.3682,75.2598 20.5,64.5C 20.9013,53.0135 25.9013,44.3468 35.5,38.5C 36.1667,38.5 36.8333,38.5 37.5,38.5C 39.8157,37.8401 42.149,37.1734 44.5,36.5C 51.7959,37.4314 59.1292,37.7647 66.5,37.5 Z"/></g>
<g><path style="opacity:1" fill="#fef9f9" d="M 85.5,44.5 C 95.4754,46.4046 95.8087,49.0713 86.5,52.5C 85.2438,52.4614 84.2438,52.9614 83.5,54C 87.4862,54.4988 91.4862,54.6655 95.5,54.5C 95.5,56.1667 95.5,57.8333 95.5,59.5C 88.2765,59.364 81.2765,59.364 74.5,59.5C 73.5041,59.4142 72.6708,59.7476 72,60.5C 71.3333,57.8333 71.3333,55.1667 72,52.5C 74.2503,51.2921 76.417,49.9587 78.5,48.5C 75.9501,47.3964 73.6168,46.063 71.5,44.5C 71.5,42.5 71.5,40.5 71.5,38.5C 80.1667,38.5 88.8333,38.5 97.5,38.5C 97.5,39.8333 97.5,41.1667 97.5,42.5C 92.8215,42.3342 88.1548,42.5008 83.5,43C 84.0442,43.7172 84.7109,44.2172 85.5,44.5 Z"/></g>
<g><path style="opacity:0.896" fill="#f63535" d="M 236.5,38.5 C 241.875,38.1718 247.208,38.5052 252.5,39.5C 255.001,48.1723 257.501,56.839 260,65.5C 262.604,57.5286 265.437,49.1952 268.5,40.5C 272.167,39.1667 275.833,39.1667 279.5,40.5C 282.099,48.4641 284.599,56.4641 287,64.5C 289.849,55.9996 292.182,47.6663 294,39.5C 299.446,38.1941 304.946,38.1941 310.5,39.5C 305.22,56.0058 300.553,72.6725 296.5,89.5C 291.456,89.8275 286.456,89.4941 281.5,88.5C 278.7,80.9321 276.2,73.2654 274,65.5C 271.265,73.2052 268.432,80.8719 265.5,88.5C 260.5,89.8333 255.5,89.8333 250.5,88.5C 245.305,72.0728 240.638,55.4062 236.5,38.5 Z"/></g>
<g><path style="opacity:0.896" fill="#f53434" d="M 557.5,38.5 C 562.833,38.5 568.167,38.5 573.5,38.5C 573.5,55.5 573.5,72.5 573.5,89.5C 568.167,89.5 562.833,89.5 557.5,89.5C 557.5,72.5 557.5,55.5 557.5,38.5 Z"/></g>
<g><path style="opacity:1" fill="#f63737" d="M 11.5,36.5 C 19.2992,37.8167 27.2992,38.4833 35.5,38.5C 25.9013,44.3468 20.9013,53.0135 20.5,64.5C 20.3682,75.2598 25.0349,82.9264 34.5,87.5C 38.6344,88.4849 42.9677,88.8182 47.5,88.5C 55.5235,89.9092 63.6902,90.9092 72,91.5C 72.3333,91.1667 72.6667,90.8333 73,90.5C 77.0352,92.1945 80.5352,94.6945 83.5,98C 87.4103,100.322 91.4103,100.656 95.5,99C 98.8085,93.845 103.475,91.0116 109.5,90.5C 109.5,91.5 109.5,92.5 109.5,93.5C 108.094,93.9731 107.427,94.9731 107.5,96.5C 106.094,96.9731 105.427,97.9731 105.5,99.5C 103.167,102.5 100.5,105.167 97.5,107.5C 96.1667,107.5 95.5,108.167 95.5,109.5C 95.1667,109.5 94.8333,109.5 94.5,109.5C 92.9731,109.427 91.9731,110.094 91.5,111.5C 89.326,111.75 87.6594,112.75 86.5,114.5C 80.9041,116.365 75.2375,118.032 69.5,119.5C 62.8333,119.5 56.1667,119.5 49.5,119.5C 46.976,118.26 44.3093,117.093 41.5,116C 39.9343,115.235 38.6009,115.402 37.5,116.5C 36.8333,116.5 36.5,116.167 36.5,115.5C 35.3406,113.75 33.674,112.75 31.5,112.5C 26.2299,108.569 21.2299,104.236 16.5,99.5C 12.4903,92.4729 8.82362,85.4729 5.5,78.5C 4.54885,77.0813 4.21552,75.4147 4.5,73.5C 3.73593,62.1945 5.06926,51.1945 8.5,40.5C 9.5,39.1667 10.5,37.8333 11.5,36.5 Z"/></g>
<g><path style="opacity:0.925" fill="#fc8c89" d="M 8.5,40.5 C 5.06926,51.1945 3.73593,62.1945 4.5,73.5C 3.73261,72.828 3.06594,71.9947 2.5,71C 2.5,65.6667 2.5,60.3333 2.5,55C 4.16518,50.6784 5.83185,46.345 7.5,42C 6.2881,40.8932 6.62143,40.3932 8.5,40.5 Z"/></g>
<g><path style="opacity:1" fill="#f55f5f" d="M 59.5,50.5 C 52.2981,51.2319 44.9648,51.8985 37.5,52.5C 37.6107,51.8826 37.944,51.3826 38.5,51C 45.4921,50.5004 52.4921,50.3337 59.5,50.5 Z"/></g>
<g><path style="opacity:1" fill="#f6878a" d="M 86.5,52.5 C 89.5,53.1667 92.5,53.8333 95.5,54.5C 91.4862,54.6655 87.4862,54.4988 83.5,54C 84.2438,52.9614 85.2438,52.4614 86.5,52.5 Z"/></g>
<g><path style="opacity:1" fill="#f55e5e" d="M 74.5,59.5 C 81.2765,59.364 88.2765,59.364 95.5,59.5C 88.6291,60.7767 81.6291,60.7767 74.5,59.5 Z"/></g>
<g><path style="opacity:0.871" fill="#fd8a86" d="M 114.5,43.5 C 118.819,54.301 119.486,65.301 116.5,76.5C 116.95,65.3943 116.283,54.3943 114.5,43.5 Z"/></g>
<g><path style="opacity:1" fill="#fef4f4" d="M 88.5,75.5 C 88.56,76.0431 88.8933,76.3764 89.5,76.5C 90.3857,75.675 90.719,74.675 90.5,73.5C 90.6744,70.1262 91.1744,66.7928 92,63.5C 94.4659,62.2234 96.9659,62.2234 99.5,63.5C 98.0886,67.7127 97.4219,72.046 97.5,76.5C 96.3428,79.2727 95.6761,82.2727 95.5,85.5C 93.7408,86.8714 91.7408,87.8714 89.5,88.5C 87.8394,86.1728 85.8394,84.1728 83.5,82.5C 81.066,79.3028 78.3993,76.3028 75.5,73.5C 74.3219,76.3908 73.6553,79.3908 73.5,82.5C 72.5489,83.9187 72.2155,85.5853 72.5,87.5C 69.9407,87.8016 67.6074,87.4682 65.5,86.5C 66.468,79.4897 67.6346,72.4897 69,65.5C 70.8201,62.7972 73.3201,61.9639 76.5,63C 80.7036,67.0356 84.7036,71.2022 88.5,75.5 Z"/></g>
<g><path style="opacity:1" fill="#f78787" d="M 90.5,73.5 C 90.719,74.675 90.3857,75.675 89.5,76.5C 88.8933,76.3764 88.56,76.0431 88.5,75.5C 89.1667,74.8333 89.8333,74.1667 90.5,73.5 Z"/></g>
<g><path style="opacity:1" fill="#f63b42" d="M 83.5,82.5 C 80.5068,84.2467 77.3401,85.58 74,86.5C 73.51,85.2068 73.3433,83.8734 73.5,82.5C 73.6553,79.3908 74.3219,76.3908 75.5,73.5C 78.3993,76.3028 81.066,79.3028 83.5,82.5 Z"/></g>
<g><path style="opacity:1" fill="#f63a4a" d="M 97.5,76.5 C 97.178,78.7224 97.8446,80.5557 99.5,82C 103.688,83.6307 108.021,84.4641 112.5,84.5C 112.737,85.791 112.404,86.791 111.5,87.5C 106.167,86.8333 100.833,86.1667 95.5,85.5C 95.6761,82.2727 96.3428,79.2727 97.5,76.5 Z"/></g>
<g><path style="opacity:0.482" fill="#fd8d8a" d="M 5.5,78.5 C 8.82362,85.4729 12.4903,92.4729 16.5,99.5C 14.8712,98.3747 13.3712,97.0414 12,95.5C 9.13288,90.0601 6.96621,84.3934 5.5,78.5 Z"/></g>
<g><path style="opacity:1" fill="#f75278" d="M 73.5,82.5 C 73.3433,83.8734 73.51,85.2068 74,86.5C 77.3401,85.58 80.5068,84.2467 83.5,82.5C 85.8394,84.1728 87.8394,86.1728 89.5,88.5C 91.7408,87.8714 93.7408,86.8714 95.5,85.5C 100.833,86.1667 106.167,86.8333 111.5,87.5C 111.158,88.3382 110.492,88.6716 109.5,88.5C 102.702,88.6555 96.0357,89.6555 89.5,91.5C 85.6735,91.3916 82.0068,90.5583 78.5,89C 68.172,88.5002 57.8387,88.3335 47.5,88.5C 42.9677,88.8182 38.6344,88.4849 34.5,87.5C 43.6822,87.8266 52.6822,87.4933 61.5,86.5C 62.8333,86.5 64.1667,86.5 65.5,86.5C 67.6074,87.4682 69.9407,87.8016 72.5,87.5C 72.2155,85.5853 72.5489,83.9187 73.5,82.5 Z"/></g>
<g><path style="opacity:0.012" fill="#fb7c7a" d="M 116.5,76.5 C 115.513,82.813 113.18,88.4797 109.5,93.5C 109.5,92.5 109.5,91.5 109.5,90.5C 109.5,89.8333 109.5,89.1667 109.5,88.5C 110.492,88.6716 111.158,88.3382 111.5,87.5C 112.404,86.791 112.737,85.791 112.5,84.5C 113.833,81.8333 115.167,79.1667 116.5,76.5 Z"/></g>
<g><path style="opacity:1" fill="#f63441" d="M 47.5,88.5 C 57.8387,88.3335 68.172,88.5002 78.5,89C 82.0068,90.5583 85.6735,91.3916 89.5,91.5C 96.0357,89.6555 102.702,88.6555 109.5,88.5C 109.5,89.1667 109.5,89.8333 109.5,90.5C 103.475,91.0116 98.8085,93.845 95.5,99C 91.4103,100.656 87.4103,100.322 83.5,98C 80.5352,94.6945 77.0352,92.1945 73,90.5C 72.6667,90.8333 72.3333,91.1667 72,91.5C 63.6902,90.9092 55.5235,89.9092 47.5,88.5 Z"/></g>
<g><path style="opacity:0.098" fill="#febdbc" d="M 109.5,93.5 C 109.573,95.0269 108.906,96.0269 107.5,96.5C 107.427,94.9731 108.094,93.9731 109.5,93.5 Z"/></g>
<g><path style="opacity:0.012" fill="#fe928e" d="M 107.5,96.5 C 107.573,98.0269 106.906,99.0269 105.5,99.5C 105.427,97.9731 106.094,96.9731 107.5,96.5 Z"/></g>
<g><path style="opacity:0.482" fill="#ff9e9b" d="M 16.5,99.5 C 21.2299,104.236 26.2299,108.569 31.5,112.5C 29.1932,112.23 27.0265,110.897 25,108.5C 24.6667,108.833 24.3333,109.167 24,109.5C 20.9055,106.578 18.4055,103.244 16.5,99.5 Z"/></g>
<g><path style="opacity:0.098" fill="#ffc1c0" d="M 97.5,107.5 C 97.1667,108.5 96.5,109.167 95.5,109.5C 95.5,108.167 96.1667,107.5 97.5,107.5 Z"/></g>
<g><path style="opacity:0.098" fill="#fda6a5" d="M 94.5,109.5 C 94.0269,110.906 93.0269,111.573 91.5,111.5C 91.9731,110.094 92.9731,109.427 94.5,109.5 Z"/></g>
<g><path style="opacity:0.573" fill="#fc908f" d="M 31.5,112.5 C 33.674,112.75 35.3406,113.75 36.5,115.5C 34.326,115.25 32.6594,114.25 31.5,112.5 Z"/></g>
<g><path style="opacity:0.314" fill="#fc9998" d="M 91.5,111.5 C 90.3406,113.25 88.674,114.25 86.5,114.5C 87.6594,112.75 89.326,111.75 91.5,111.5 Z"/></g>
<g><path style="opacity:0.925" fill="#fb7d7b" d="M 37.5,116.5 C 38.6009,115.402 39.9343,115.235 41.5,116C 44.3093,117.093 46.976,118.26 49.5,119.5C 47.1933,119.014 45.0266,119.014 43,119.5C 41.5123,117.84 39.679,116.84 37.5,116.5 Z"/></g>
<g><path style="opacity:0.482" fill="#fea09e" d="M 86.5,114.5 C 81.3395,117.666 75.6728,119.666 69.5,120.5C 69.5,120.167 69.5,119.833 69.5,119.5C 75.2375,118.032 80.9041,116.365 86.5,114.5 Z"/></g>
<g><path style="opacity:0.655" fill="#fe918e" d="M 49.5,119.5 C 56.1667,119.5 62.8333,119.5 69.5,119.5C 69.5,119.833 69.5,120.167 69.5,120.5C 62.6353,121.8 55.9687,121.467 49.5,119.5 Z"/></g>
</svg>
