<?xml version="1.0" encoding="UTF-8"?>
<!DOCTYPE svg PUBLIC "-//W3C//DTD SVG 1.1//EN" "http://www.w3.org/Graphics/SVG/1.1/DTD/svg11.dtd">
<svg xmlns="http://www.w3.org/2000/svg" version="1.1" width="3464px" height="705px" style="shape-rendering:geometricPrecision; text-rendering:geometricPrecision; image-rendering:optimizeQuality; fill-rule:evenodd; clip-rule:evenodd" xmlns:xlink="http://www.w3.org/1999/xlink">
<g><path style="opacity:1" fill="#f53837" d="M 308.5,34.5 C 420.548,27.7579 512.715,66.7579 585,151.5C 652.401,240.188 671.067,338.522 641,446.5C 605.463,550.037 535.963,619.537 432.5,655C 324.523,685.161 226.19,666.495 137.5,599C 52.3744,526.377 13.541,433.877 21,321.5C 32.4804,223.663 77.9804,146.163 157.5,89C 203.367,58.4502 253.7,40.2836 308.5,34.5 Z"/></g>
<g><path style="opacity:0.957" fill="#f63636" d="M 3105.5,78.5 C 3127.3,77.0323 3144.14,85.3656 3156,103.5C 3157.29,106.405 3158.29,109.405 3159,112.5C 3159.91,124.225 3159.58,135.892 3158,147.5C 3146.42,169.21 3128.25,178.71 3103.5,176C 3083.57,172.942 3070.73,161.775 3065,142.5C 3059.34,115.139 3068.84,94.9722 3093.5,82C 3097.54,80.5086 3101.54,79.3419 3105.5,78.5 Z"/></g>
<g><path style="opacity:1" fill="#f53838" d="M 222.5,537.5 C 232.825,530.183 237.825,520.183 237.5,507.5C 245.702,506.141 251.869,501.808 256,494.5C 261.552,506.271 266.552,518.271 271,530.5C 274.38,535.547 278.714,539.547 284,542.5C 292.576,555.61 304.409,559.777 319.5,555C 328.062,551.457 333.229,545.29 335,536.5C 328.46,525.595 327.793,514.262 333,502.5C 340.542,487.505 347.875,472.505 355,457.5C 357.116,448.569 356.282,439.902 352.5,431.5C 355.51,425.637 357.843,419.47 359.5,413C 358.394,402.857 358.227,392.69 359,382.5C 360.425,376.315 362.425,370.315 365,364.5C 368.911,345.629 368.244,326.962 363,308.5C 360.816,303.312 357.482,298.978 353,295.5C 352.547,292.233 351.713,289.066 350.5,286C 353.987,281.845 357.487,277.678 361,273.5C 366.376,263.706 370.376,253.372 373,242.5C 375.5,237.5 378,232.5 380.5,227.5C 381.628,226.738 382.795,226.071 384,225.5C 385.915,222.138 386.915,218.471 387,214.5C 388.041,212.415 389.541,210.748 391.5,209.5C 390.689,208.784 390.022,207.95 389.5,207C 394.21,187.746 387.21,175.08 368.5,169C 364.5,168.333 360.5,168.333 356.5,169C 349.807,172.379 343.14,175.713 336.5,179C 333.64,181.36 330.64,183.527 327.5,185.5C 322.2,184.431 316.866,184.264 311.5,185C 304.252,187.957 297.252,191.457 290.5,195.5C 287.945,190.735 285.112,186.069 282,181.5C 272.339,172.121 261.172,169.954 248.5,175C 244.405,177.259 240.738,180.093 237.5,183.5C 234.923,182.057 232.59,180.39 230.5,178.5C 240.461,173.382 251.128,168.882 262.5,165C 268.539,163.777 274.205,162.444 279.5,161C 281.678,153.036 286.012,146.036 292.5,140C 319.508,118.336 347.342,116.836 376,135.5C 376.333,135.167 376.667,134.833 377,134.5C 388.468,141.257 399.468,148.59 410,156.5C 413.261,156.609 416.594,156.275 420,155.5C 423,156.167 426,156.833 429,157.5C 435.25,154.61 441.75,152.276 448.5,150.5C 449.086,150.709 449.586,151.043 450,151.5C 453.271,150.711 456.605,149.711 460,148.5C 464,149.833 468,149.833 472,148.5C 475.354,149.959 478.687,150.959 482,151.5C 482.561,150.978 483.228,150.645 484,150.5C 491.593,153.208 499.426,156.375 507.5,160C 513.342,163.754 519.009,167.754 524.5,172C 532.078,180.255 540.245,187.088 549,192.5C 566.235,207.829 578.902,226.829 587,249.5C 595.041,278.396 591.874,306.562 577.5,334C 595.748,366.986 600.081,400.652 590.5,435C 590.957,435.414 591.291,435.914 591.5,436.5C 581.397,471.602 562.397,499.769 534.5,521C 526.055,526.26 517.222,530.76 508,534.5C 487.543,556.676 462.877,569.01 434,571.5C 430.667,572.167 427.333,572.833 424,573.5C 416.119,573.357 408.452,573.357 401,573.5C 397.248,572.558 393.414,571.558 389.5,570.5C 386.7,570.434 383.867,570.434 381,570.5C 378,568.827 375,568.16 372,568.5C 370.055,566.819 368.055,566.152 366,566.5C 357.555,563.806 349.222,560.806 341,557.5C 337.837,557.812 334.503,558.479 331,559.5C 324.153,559.096 317.153,559.096 310,559.5C 288.713,558.163 269.047,554.496 251,548.5C 246.494,546.16 241.994,543.66 237.5,541C 232.387,540.145 227.387,538.979 222.5,537.5 Z"/></g>
<g><path style="opacity:1" fill="#f6373a" d="M 222.5,537.5 C 196.611,531.373 171.944,522.207 148.5,510C 135.573,497.715 125.74,483.215 119,466.5C 114.396,452.749 110.729,438.749 108,424.5C 106.612,415.079 109.112,406.912 115.5,400C 115.167,399.667 114.833,399.333 114.5,399C 115.664,397.006 116.331,394.839 116.5,392.5C 114.341,381.257 112.841,369.924 112,358.5C 106.709,352.128 103.876,344.795 103.5,336.5C 104.858,326.376 106.858,316.376 109.5,306.5C 108.377,296.962 108.877,287.295 111,277.5C 113.944,270.889 118.611,265.889 125,262.5C 129.109,250.945 134.776,240.278 142,230.5C 147.746,224.212 154.912,221.046 163.5,221C 174.426,207.404 186.092,194.404 198.5,182C 201.569,180.154 204.902,179.154 208.5,179C 215.826,178.5 223.159,178.334 230.5,178.5C 232.59,180.39 234.923,182.057 237.5,183.5C 240.738,180.093 244.405,177.259 248.5,175C 261.172,169.954 272.339,172.121 282,181.5C 285.112,186.069 287.945,190.735 290.5,195.5C 297.252,191.457 304.252,187.957 311.5,185C 316.866,184.264 322.2,184.431 327.5,185.5C 330.64,183.527 333.64,181.36 336.5,179C 343.14,175.713 349.807,172.379 356.5,169C 360.5,168.333 364.5,168.333 368.5,169C 387.21,175.08 394.21,187.746 389.5,207C 390.022,207.95 390.689,208.784 391.5,209.5C 389.541,210.748 388.041,212.415 387,214.5C 386.915,218.471 385.915,222.138 384,225.5C 382.795,226.071 381.628,226.738 380.5,227.5C 378,232.5 375.5,237.5 373,242.5C 370.376,253.372 366.376,263.706 361,273.5C 357.487,277.678 353.987,281.845 350.5,286C 351.713,289.066 352.547,292.233 353,295.5C 357.482,298.978 360.816,303.312 363,308.5C 368.244,326.962 368.911,345.629 365,364.5C 362.425,370.315 360.425,376.315 359,382.5C 358.227,392.69 358.394,402.857 359.5,413C 357.843,419.47 355.51,425.637 352.5,431.5C 356.282,439.902 357.116,448.569 355,457.5C 347.875,472.505 340.542,487.505 333,502.5C 327.793,514.262 328.46,525.595 335,536.5C 333.229,545.29 328.062,551.457 319.5,555C 304.409,559.777 292.576,555.61 284,542.5C 278.714,539.547 274.38,535.547 271,530.5C 266.552,518.271 261.552,506.271 256,494.5C 251.869,501.808 245.702,506.141 237.5,507.5C 237.825,520.183 232.825,530.183 222.5,537.5 Z"/></g>
<g><path style="opacity:0.972" fill="#f63737" d="M 818.5,327.5 C 817.71,328.609 817.21,329.942 817,331.5C 816.168,384.668 816.335,437.668 817.5,490.5C 817.489,492.017 816.823,493.184 815.5,494C 788.167,494.667 760.833,494.667 733.5,494C 732.801,490.2 732.135,486.367 731.5,482.5C 732.531,404.406 732.531,326.239 731.5,248C 732.298,237.867 732.798,227.701 733,217.5C 758.426,216.505 783.926,216.172 809.5,216.5C 809.334,222.509 809.501,228.509 810,234.5C 824.141,220.012 841.307,211.178 861.5,208C 895.315,202.157 925.981,209.157 953.5,229C 966.66,240.494 976.494,254.328 983,270.5C 986.297,280.617 988.631,290.95 990,301.5C 990.167,333.5 990.333,365.5 990.5,397.5C 990.496,429.88 989.83,462.046 988.5,494C 961.124,494.824 933.791,494.658 906.5,493.5C 905.833,435.833 905.167,378.167 904.5,320.5C 902.987,310.734 899.32,301.901 893.5,294C 889.188,289.177 883.855,286.511 877.5,286C 858.953,282.035 842.953,286.535 829.5,299.5C 823.87,308.107 820.203,317.44 818.5,327.5 Z"/></g>
<g><path style="opacity:0.971" fill="#f53736" d="M 2540.5,206.5 C 2567.76,204.352 2594.09,208.185 2619.5,218C 2648.94,233.069 2667.77,256.569 2676,288.5C 2677.58,297.435 2678.58,306.435 2679,315.5C 2679.17,345.167 2679.33,374.833 2679.5,404.5C 2679.5,434.547 2678.83,464.38 2677.5,494C 2653.5,494.667 2629.5,494.667 2605.5,494C 2604.69,488.917 2604.19,483.75 2604,478.5C 2577.77,500.624 2547.61,508.457 2513.5,502C 2477.76,493.918 2453.59,472.751 2441,438.5C 2436.38,416.163 2436.38,393.829 2441,371.5C 2446.27,358.617 2453.77,347.283 2463.5,337.5C 2467.8,334.73 2471.8,331.564 2475.5,328C 2485,323.479 2494.66,319.479 2504.5,316C 2523.83,314 2543.17,314 2562.5,316C 2570.26,318.591 2577.93,321.591 2585.5,325C 2589.63,327.14 2593.46,329.64 2597,332.5C 2599.42,313.681 2593.25,298.347 2578.5,286.5C 2566.46,278.96 2553.3,275.627 2539,276.5C 2532.83,276.833 2526.67,277.167 2520.5,277.5C 2509.76,279.68 2499.26,282.68 2489,286.5C 2484.83,288.676 2480.66,290.843 2476.5,293C 2474.1,293.814 2471.76,293.647 2469.5,292.5C 2461.13,274.768 2452.47,257.101 2443.5,239.5C 2443.92,238.328 2444.59,237.328 2445.5,236.5C 2457.29,229.619 2469.63,223.786 2482.5,219C 2501.57,212.895 2520.9,208.728 2540.5,206.5 Z M 2552.5,377.5 C 2565.11,377.153 2577.11,379.653 2588.5,385C 2593.92,388.074 2597.42,392.574 2599,398.5C 2600.97,407.493 2599.14,415.493 2593.5,422.5C 2582.76,430.23 2570.76,433.896 2557.5,433.5C 2547.68,433.972 2538.68,431.639 2530.5,426.5C 2517.67,412.992 2517.33,399.159 2529.5,385C 2536.83,381.092 2544.5,378.592 2552.5,377.5 Z"/></g>
<g><path style="opacity:0.971" fill="#f63737" d="M 3002.5,318.5 C 3001.5,318.47 3000.84,318.97 3000.5,320C 3001.47,377.394 3001.8,434.728 3001.5,492C 2975.39,493.139 2949.39,493.973 2923.5,494.5C 2921.53,494.739 2919.7,494.406 2918,493.5C 2917.67,440.5 2917.33,387.5 2917,334.5C 2915.77,329.279 2915.1,323.946 2915,318.5C 2914.2,304.732 2908.03,294.232 2896.5,287C 2852.56,279.696 2830.06,298.196 2829,342.5C 2828.67,392.833 2828.33,443.167 2828,493.5C 2800.53,494.83 2773.03,494.83 2745.5,493.5C 2744.33,401.502 2744.17,309.502 2745,217.5C 2770.43,216.173 2795.93,216.173 2821.5,217.5C 2821.81,218.308 2822.31,218.975 2823,219.5C 2823.33,223.833 2823.67,228.167 2824,232.5C 2836.42,220.371 2851.25,212.538 2868.5,209C 2903.93,201.486 2936.27,208.152 2965.5,229C 2991.12,253.19 3003.45,283.023 3002.5,318.5 Z"/></g>
<g><path style="opacity:0.971" fill="#f53737" d="M 3444.5,494.5 C 3422.34,493.668 3400,493.168 3377.5,493C 3376.85,487.22 3376.19,481.387 3375.5,475.5C 3374.48,476.852 3373.48,478.185 3372.5,479.5C 3357.81,492.176 3340.81,500.01 3321.5,503C 3283.92,507.481 3252.42,495.981 3227,468.5C 3203.66,434.017 3200.33,397.684 3217,359.5C 3225.48,345.017 3236.98,333.517 3251.5,325C 3259.17,321.998 3266.84,318.998 3274.5,316C 3293.83,314.027 3313.17,314.027 3332.5,316C 3336.8,317.93 3341.3,319.43 3346,320.5C 3353.78,323.724 3361.12,327.724 3368,332.5C 3369.29,302.483 3355.46,283.983 3326.5,277C 3314.83,276.333 3303.17,276.333 3291.5,277C 3280.55,279.529 3269.72,282.696 3259,286.5C 3254.6,288.282 3250.44,290.448 3246.5,293C 3244.17,293.667 3241.83,293.667 3239.5,293C 3233.98,282.464 3229.15,271.631 3225,260.5C 3219.91,253.563 3216.58,245.896 3215,237.5C 3219.92,233.957 3225.08,230.79 3230.5,228C 3260.89,214.425 3292.73,207.258 3326,206.5C 3356.16,204.921 3383.66,212.421 3408.5,229C 3423.45,241.401 3434.61,256.567 3442,274.5C 3446.46,289.484 3449.12,304.818 3450,320.5C 3450.83,378.17 3450.67,435.836 3449.5,493.5C 3447.93,494.309 3446.26,494.643 3444.5,494.5 Z M 3323.5,377.5 C 3336.53,377.342 3348.87,380.175 3360.5,386C 3373.39,398.265 3373.72,410.931 3361.5,424C 3356.64,426.932 3351.64,429.598 3346.5,432C 3334.46,434.039 3322.46,433.872 3310.5,431.5C 3297.99,427.233 3291.66,418.399 3291.5,405C 3291.91,399.015 3293.58,393.348 3296.5,388C 3298.95,385.267 3301.95,383.267 3305.5,382C 3311.52,380.036 3317.52,378.536 3323.5,377.5 Z"/></g>
<g><path style="opacity:0.971" fill="#f53736" d="M 1286.5,381.5 C 1230.5,381.5 1174.5,381.5 1118.5,381.5C 1118.12,383.698 1118.79,385.365 1120.5,386.5C 1122.91,402.104 1130.57,414.604 1143.5,424C 1148.87,426.687 1154.21,429.354 1159.5,432C 1165.74,432.407 1171.91,433.24 1178,434.5C 1201.25,433.942 1220.75,425.109 1236.5,408C 1237.87,407.598 1239.21,407.098 1240.5,406.5C 1243.51,409.012 1246.34,411.678 1249,414.5C 1260,428.167 1271,441.833 1282,455.5C 1282.52,457.289 1282.19,458.956 1281,460.5C 1253.2,487.809 1219.7,502.142 1180.5,503.5C 1171.15,502.77 1161.65,502.104 1152,501.5C 1150.93,501.528 1150.1,501.861 1149.5,502.5C 1105.88,497.623 1073.72,475.956 1053,437.5C 1049.47,429.246 1046.14,420.913 1043,412.5C 1029.94,364.057 1033.6,317.057 1054,271.5C 1074.33,234.57 1105.5,213.404 1147.5,208C 1189.46,202.104 1225.96,213.271 1257,241.5C 1282.98,271.894 1295.15,307.227 1293.5,347.5C 1293.33,354.833 1293.17,362.167 1293,369.5C 1291.34,373.326 1290.17,377.326 1289.5,381.5C 1288.5,381.5 1287.5,381.5 1286.5,381.5 Z M 1157.5,276.5 C 1165.86,276.169 1174.19,276.502 1182.5,277.5C 1193.58,281.774 1202.41,288.774 1209,298.5C 1213.16,306.806 1215.99,315.473 1217.5,324.5C 1184.83,324.833 1152.16,324.5 1119.5,323.5C 1122.14,308.711 1129.14,296.378 1140.5,286.5C 1146.11,282.868 1151.78,279.535 1157.5,276.5 Z"/></g>
<g><path style="opacity:0.969" fill="#f53636" d="M 1816.5,503.5 C 1816.08,502.778 1815.42,502.278 1814.5,502C 1808.5,501.992 1802.67,501.158 1797,499.5C 1796.24,499.57 1795.74,499.903 1795.5,500.5C 1769.27,495.296 1745.1,485.296 1723,470.5C 1721.81,468.956 1721.48,467.289 1722,465.5C 1731.1,445.941 1739.93,426.274 1748.5,406.5C 1753.92,406.022 1758.58,407.856 1762.5,412C 1770.42,415.218 1778.25,418.718 1786,422.5C 1791.38,423.468 1796.55,424.968 1801.5,427C 1814.65,430.167 1827.99,431.167 1841.5,430C 1859.42,423.892 1862.25,413.725 1850,399.5C 1848.44,397.641 1846.61,396.141 1844.5,395C 1828.53,387.111 1812.2,379.777 1795.5,373C 1778.34,364.18 1762.5,353.347 1748,340.5C 1729.38,315.861 1725.38,288.861 1736,259.5C 1744.44,240.728 1757.94,226.895 1776.5,218C 1831.04,198.947 1882.21,205.447 1930,237.5C 1929.75,242.848 1928.75,248.181 1927,253.5C 1920.35,268.962 1913.52,284.296 1906.5,299.5C 1904.83,300.833 1903.17,300.833 1901.5,299.5C 1893.27,295.626 1885.27,291.459 1877.5,287C 1870.21,285.605 1863.05,283.772 1856,281.5C 1844.09,279.646 1832.26,279.646 1820.5,281.5C 1812.63,284.33 1810.13,289.664 1813,297.5C 1815.68,300.011 1818.51,302.344 1821.5,304.5C 1828.63,307.713 1835.63,311.213 1842.5,315C 1865.94,322.221 1887.61,332.888 1907.5,347C 1914.66,353.163 1921.5,359.663 1928,366.5C 1928.35,369.951 1929.85,372.784 1932.5,375C 1938.62,387.237 1941.29,400.237 1940.5,414C 1941.36,439.27 1932.36,460.27 1913.5,477C 1897.48,490.343 1879.15,498.677 1858.5,502C 1844.53,503.232 1830.53,503.732 1816.5,503.5 Z"/></g>
<g><path style="opacity:0.972" fill="#f63737" d="M 2392.5,310.5 C 2391.5,310.47 2390.84,310.97 2390.5,312C 2391.09,344.156 2391.43,376.489 2391.5,409C 2391.65,436.56 2391.15,464.06 2390,491.5C 2364.22,493.157 2338.39,494.157 2312.5,494.5C 2310.9,494.768 2309.57,494.434 2308.5,493.5C 2307.85,438.36 2307.18,383.36 2306.5,328.5C 2306.66,317.474 2304.83,306.808 2301,296.5C 2297.8,292.964 2294.3,289.797 2290.5,287C 2279.8,284.947 2269.13,285.114 2258.5,287.5C 2250.39,291.113 2244.89,297.113 2242,305.5C 2240.78,312.256 2239.28,318.923 2237.5,325.5C 2236.83,381.5 2236.17,437.5 2235.5,493.5C 2208.21,494.658 2180.88,494.824 2153.5,494C 2151.67,435.381 2150.84,376.548 2151,317.5C 2149.19,310.21 2146.53,303.21 2143,296.5C 2139.24,294.368 2135.74,291.868 2132.5,289C 2107.61,279.866 2091.11,287.699 2083,312.5C 2082.3,319.251 2081.3,325.918 2080,332.5C 2079.67,386.167 2079.33,439.833 2079,493.5C 2051.57,494.661 2024.07,494.828 1996.5,494C 1995.33,401.903 1995.17,309.737 1996,217.5C 2021.43,216.505 2046.93,216.172 2072.5,216.5C 2072.33,222.509 2072.5,228.509 2073,234.5C 2096.58,212.863 2124.42,204.03 2156.5,208C 2177.58,211.396 2195.25,220.896 2209.5,236.5C 2223.29,222.379 2239.96,213.212 2259.5,209C 2291.16,203.043 2320.82,208.043 2348.5,224C 2367.56,237.733 2380.39,255.9 2387,278.5C 2389.52,289.012 2391.35,299.679 2392.5,310.5 Z"/></g>
<g><path style="opacity:1" fill="#fffefe" d="M 540.5,209.5 C 540.5,219.167 540.5,228.833 540.5,238.5C 513.498,238.333 486.498,238.5 459.5,239C 460.527,239.513 461.527,240.013 462.5,240.5C 483.258,249.377 503.925,258.544 524.5,268C 503.93,277.453 483.263,286.62 462.5,295.5C 461.527,295.987 460.527,296.487 459.5,297C 481.164,297.5 502.831,297.667 524.5,297.5C 524.5,307.167 524.5,316.833 524.5,326.5C 491.5,326.5 458.5,326.5 425.5,326.5C 425.663,324.143 425.497,321.81 425,319.5C 414.789,324.021 404.622,328.688 394.5,333.5C 393.334,318.845 393.167,304.178 394,289.5C 409.877,282.479 425.711,275.312 441.5,268C 425.711,260.688 409.877,253.521 394,246.5C 393.5,234.171 393.333,221.838 393.5,209.5C 442.5,209.5 491.5,209.5 540.5,209.5 Z"/></g>
<g><path style="opacity:1" fill="#fffdfd" d="M 232.5,210.5 C 278.172,210.167 323.838,210.5 369.5,211.5C 354.958,234.751 340.292,257.918 325.5,281C 291.833,281.333 258.167,281.667 224.5,282C 197.975,289.526 181.142,306.692 174,333.5C 169.839,351.501 170.839,369.167 177,386.5C 182.861,399.525 192.694,408.025 206.5,412C 232.831,412.5 259.165,412.667 285.5,412.5C 287.314,399.549 288.647,386.549 289.5,373.5C 258.826,373.833 228.159,373.5 197.5,372.5C 211.029,352.803 224.363,332.97 237.5,313C 275.832,312.5 314.165,312.333 352.5,312.5C 346.268,369.222 339.602,425.889 332.5,482.5C 287.165,482.667 241.832,482.5 196.5,482C 161.973,474.815 138.473,454.648 126,421.5C 108.554,370.424 112.554,321.09 138,273.5C 159.542,237.442 191.042,216.442 232.5,210.5 Z"/></g>
<g><path style="opacity:0.971" fill="#f63736" d="M 1305.5,216.5 C 1333.41,216.172 1361.24,216.505 1389,217.5C 1395.12,240.172 1401.45,262.838 1408,285.5C 1408.38,289.019 1408.88,292.519 1409.5,296C 1417.12,320.416 1423.62,345.249 1429,370.5C 1429.41,370.957 1429.91,371.291 1430.5,371.5C 1432.13,367.381 1433.96,363.381 1436,359.5C 1439.98,346.26 1443.98,332.927 1448,319.5C 1459.29,287.425 1470.45,255.258 1481.5,223C 1499.08,221.361 1516.74,221.028 1534.5,222C 1536,222.833 1537.17,224 1538,225.5C 1541.84,235.392 1544.68,245.558 1546.5,256C 1550.93,267.063 1554.26,278.397 1556.5,290C 1561.14,299.729 1564.31,309.895 1566,320.5C 1571.8,337.42 1577.47,354.42 1583,371.5C 1584.74,357.987 1588.08,344.987 1593,332.5C 1593.93,323.024 1596.26,314.024 1600,305.5C 1603.16,288.859 1607.5,272.526 1613,256.5C 1614.94,243.087 1618.27,230.087 1623,217.5C 1650.43,216.505 1677.93,216.172 1705.5,216.5C 1704.66,223.198 1703.49,229.864 1702,236.5C 1697.17,247.965 1693.83,259.965 1692,272.5C 1687.27,283.736 1683.94,295.403 1682,307.5C 1676.32,326.936 1670.32,346.269 1664,365.5C 1657,392.121 1650,418.788 1643,445.5C 1638,459.159 1634,473.159 1631,487.5C 1630.2,489.883 1629.03,492.05 1627.5,494C 1603.17,494.667 1578.83,494.667 1554.5,494C 1553.57,493.612 1552.91,492.945 1552.5,492C 1537.77,447.266 1522.93,402.433 1508,357.5C 1506.19,367.438 1502.85,376.771 1498,385.5C 1497.12,388.789 1496.45,392.123 1496,395.5C 1483.4,428.058 1471.23,460.725 1459.5,493.5C 1434.54,494.657 1409.54,494.824 1384.5,494C 1382.68,492.2 1381.52,490.034 1381,487.5C 1374.41,461.868 1367.08,436.534 1359,411.5C 1358,406.5 1357,401.5 1356,396.5C 1350.87,378.566 1345.37,360.733 1339.5,343C 1327.94,301.509 1316.28,260.176 1304.5,219C 1304.74,218.098 1305.08,217.265 1305.5,216.5 Z"/></g>
<g><path style="opacity:0.964" fill="#f63737" d="M 3070.5,216.5 C 3098.5,216.5 3126.5,216.5 3154.5,216.5C 3154.67,308.834 3154.5,401.167 3154,493.5C 3140.24,494.162 3126.41,494.496 3112.5,494.5C 3098.46,494.492 3084.46,494.158 3070.5,493.5C 3069.17,401.099 3069.17,308.765 3070.5,216.5 Z"/></g>
<g><path style="opacity:1" fill="#fa9090" d="M 540.5,209.5 C 541.494,219.319 541.827,229.319 541.5,239.5C 514.995,239.169 488.661,239.502 462.5,240.5C 461.527,240.013 460.527,239.513 459.5,239C 486.498,238.5 513.498,238.333 540.5,238.5C 540.5,228.833 540.5,219.167 540.5,209.5 Z"/></g>
<g><path style="opacity:1" fill="#f97f7f" d="M 462.5,295.5 C 483.167,296.167 503.833,296.833 524.5,297.5C 502.831,297.667 481.164,297.5 459.5,297C 460.527,296.487 461.527,295.987 462.5,295.5 Z"/></g>
<g><path style="opacity:0.031" fill="#fe1b1b" d="M 3002.5,318.5 C 3002.83,376.837 3002.5,435.17 3001.5,493.5C 2975.54,494.491 2949.54,494.824 2923.5,494.5C 2949.39,493.973 2975.39,493.139 3001.5,492C 3001.8,434.728 3001.47,377.394 3000.5,320C 3000.84,318.97 3001.5,318.47 3002.5,318.5 Z"/></g>
<g><path style="opacity:0.024" fill="#fe2221" d="M 2392.5,310.5 C 2392.67,371.168 2392.5,431.834 2392,492.5C 2391.5,493 2391,493.5 2390.5,494C 2364.5,494.5 2338.5,494.667 2312.5,494.5C 2338.39,494.157 2364.22,493.157 2390,491.5C 2391.15,464.06 2391.65,436.56 2391.5,409C 2391.43,376.489 2391.09,344.156 2390.5,312C 2390.84,310.97 2391.5,310.47 2392.5,310.5 Z"/></g>
<g><path style="opacity:0.024" fill="#fe2929" d="M 2306.5,328.5 C 2307.18,383.36 2307.85,438.36 2308.5,493.5C 2307.88,493.389 2307.38,493.056 2307,492.5C 2306.5,437.834 2306.33,383.168 2306.5,328.5 Z"/></g>
<g><path style="opacity:0.031" fill="#fe1f1f" d="M 818.5,327.5 C 817.53,381.819 817.197,436.152 817.5,490.5C 816.335,437.668 816.168,384.668 817,331.5C 817.21,329.942 817.71,328.609 818.5,327.5 Z"/></g>
<g><path style="opacity:1" fill="#fffdfd" d="M 397.5,343.5 C 404.799,342.489 411.466,343.989 417.5,348C 441.683,373.349 465.683,398.849 489.5,424.5C 494.683,398.252 499.35,371.919 503.5,345.5C 516.5,345.5 529.5,345.5 542.5,345.5C 535.735,383.829 528.901,422.162 522,460.5C 517.462,477.853 506.296,485.353 488.5,483C 486.004,481.92 483.67,480.586 481.5,479C 457.317,453.651 433.317,428.151 409.5,402.5C 404.295,428.732 399.628,455.065 395.5,481.5C 382.5,481.5 369.5,481.5 356.5,481.5C 363.126,441.409 370.293,401.409 378,361.5C 381.567,352.163 388.067,346.163 397.5,343.5 Z"/></g>
<g><path style="opacity:0.004" fill="#fe0000" d="M 1286.5,381.5 C 1231,382.167 1175.33,382.833 1119.5,383.5C 1120.13,384.417 1120.46,385.417 1120.5,386.5C 1118.79,385.365 1118.12,383.698 1118.5,381.5C 1174.5,381.5 1230.5,381.5 1286.5,381.5 Z"/></g>
<g><path style="opacity:0.012" fill="#fe0e0b" d="M 3444.5,494.5 C 3421.83,494.667 3399.16,494.5 3376.5,494C 3376,493.5 3375.5,493 3375,492.5C 3374.67,488.5 3374.33,484.5 3374,480.5C 3373.62,479.944 3373.12,479.611 3372.5,479.5C 3373.48,478.185 3374.48,476.852 3375.5,475.5C 3376.19,481.387 3376.85,487.22 3377.5,493C 3400,493.168 3422.34,493.668 3444.5,494.5 Z"/></g>
<g><path style="opacity:0.008" fill="#fe0908" d="M 1816.5,503.5 C 1810.52,502.859 1804.52,502.359 1798.5,502C 1797.26,501.768 1796.26,501.268 1795.5,500.5C 1795.74,499.903 1796.24,499.57 1797,499.5C 1802.67,501.158 1808.5,501.992 1814.5,502C 1815.42,502.278 1816.08,502.778 1816.5,503.5 Z"/></g>
<g><path style="opacity:0.01" fill="#ff0303" d="M 1149.5,502.5 C 1150.1,501.861 1150.93,501.528 1152,501.5C 1161.65,502.104 1171.15,502.77 1180.5,503.5C 1170.13,503.76 1159.79,503.427 1149.5,502.5 Z"/></g>
</svg>
