<svg xmlns="http://www.w3.org/2000/svg" width="2400" height="600" style="shape-rendering:geometricPrecision;text-rendering:geometricPrecision;image-rendering:optimizeQuality;fill-rule:evenodd;clip-rule:evenodd"><path style="opacity:.906" fill="#01f4ff" d="m550.5 455.5-1-2c.167-35.335 0-70.668-.5-106-5.042-53.256-27.875-97.089-68.5-131.5-49.237-37.095-103.237-46.095-162-27-44.372 17.372-76.872 47.539-97.5 90.5-1.011.837-2.178 1.17-3.5 1-5.172-58.304 10.661-109.971 47.5-155C322.015 64.538 390.182 47.371 469.5 74c68.19 31.147 107.69 83.981 118.5 158.5a6360.37 6360.37 0 0 1 1 222 376.316 376.316 0 0 1-38.5 1Z"/><path style="opacity:.991" fill="#8400ff" d="M869.5 148.5c56.855-1.984 102.022 19.682 135.5 65 31.6 52.865 33.6 106.865 6 162-33.333 52.92-81.499 77.754-144.5 74.5-58.232-6.51-100.066-36.01-125.5-88.5-21.738-56.944-14.738-109.944 21-159 28.509-32.505 64.342-50.505 107.5-54Zm9 52c60.725 5.079 93.058 38.079 97 99-.956 42.782-20.622 73.282-59 91.5-43.043 14.781-80.21 5.614-111.5-27.5-18.703-25.838-25.036-54.505-19-86 12.168-47.996 43.002-73.662 92.5-77Z"/><path style="opacity:.98" fill="#0be1ff" d="M1644.5 163.5c22.88-.951 35.88 9.882 39 32.5-1.65 20.205-12.48 31.038-32.5 32.5-23.86-2.038-34.86-15.038-33-39 3.46-14.294 12.29-22.961 26.5-26Z"/><path style="opacity:.989" fill="#0be1ff" d="M1929.5 168.5h51c-.33 50.004 0 100.004 1 150a1825.902 1825.902 0 0 0 62-62.5c21.66-.5 43.33-.667 65-.5a8.394 8.394 0 0 1-.5 4c-23.17 22.5-46.33 45-69.5 67.5 24.62 36.747 49.12 73.581 73.5 110.5 1.2 2.177 1.7 4.511 1.5 7-20 .167-40 0-60-.5a10271.838 10271.838 0 0 0-51.5-81.5 574.12 574.12 0 0 1-20.5 20c-1 20.656-1.33 41.323-1 62h-51v-276Z"/><path style="opacity:.99" fill="#0be1ff" d="M1250.5 168.5h207v50h-77v226h-53v-226h-77v-50Z"/><path style="opacity:1" fill="#0ce0ff" d="M549.5 453.5c-54.668.167-109.334 0-164-.5-63.226-9.179-110.726-41.346-142.5-96.5-12.069-22.877-19.736-47.211-23-73-.708-.881-1.542-1.547-2.5-2v-1c1.322.17 2.489-.163 3.5-1 20.628-42.961 53.128-73.128 97.5-90.5 58.763-19.095 112.763-10.095 162 27 40.625 34.411 63.458 78.244 68.5 131.5.5 35.332.667 70.665.5 106Z"/><path style="opacity:.988" fill="#8400ff" d="M1168.5 239.5c53.44-2.726 81.94 22.608 85.5 76 .5 42.665.67 85.332.5 128h-54c.47-43.034-.03-86.034-1.5-129-5.07-17.382-16.73-26.048-35-26-21.03 2.361-34.7 13.694-41 34a111.49 111.49 0 0 0-3 16c-.5 34.998-.67 69.998-.5 105h-54v-198h51a169.8 169.8 0 0 0 1 26c12.72-17.524 29.72-28.19 51-32Z"/><path style="opacity:.982" fill="#0be1ff" d="M1565.5 249.5c11.5-.318 22.5 1.849 33 6.5.46.414.79.914 1 1.5a3693.605 3693.605 0 0 1-14.5 46c-22.31-9.806-41.64-5.806-58 12-5.09 7.61-8.43 15.943-10 25-.5 34.665-.67 69.332-.5 104h-52v-189h49a169.8 169.8 0 0 0 1 26c11.87-18.878 28.87-29.544 51-32Z"/><path style="opacity:.987" fill="#0be1ff" d="M1795.5 249.5c34.86-4.264 64.36 6.07 88.5 31a85.327 85.327 0 0 1 13.5 24 2556.089 2556.089 0 0 0-45.5 18c-4.35-6.365-9.52-12.198-15.5-17.5-20.34-12.047-40-11.047-59 3-18.12 20.276-21.95 43.11-11.5 68.5 14.23 23.749 34.73 31.583 61.5 23.5 11.44-5.279 20.11-13.446 26-24.5a722.13 722.13 0 0 1 46 21c-22.07 40.206-56.07 58.039-102 53.5-38-4.241-64.83-23.741-80.5-58.5-9.62-26.869-9.95-53.869-1-81 15.3-34.904 41.8-55.238 79.5-61Z"/><path style="opacity:.982" fill="#0be1ff" d="M1624.5 255.5h52v189h-52v-189Z"/><path style="opacity:.99" fill="#0be1ff" d="M2113.5 256.5c19.5-1.328 39.17-1.328 59 0a8476.093 8476.093 0 0 0 48 113 2363.671 2363.671 0 0 0 46-114c19.34-.167 38.67 0 58 .5a96579.676 96579.676 0 0 1-118 270.5c-18.32 1-36.65 1.333-55 1a8440.377 8440.377 0 0 1 41-93 10684.585 10684.585 0 0 0-79-178Z"/><path style="opacity:1" fill="#8302ff" d="M217.5 281.5c.958.453 1.792 1.119 2.5 2 3.264 25.789 10.931 50.123 23 73 31.774 55.154 79.274 87.321 142.5 96.5 54.666.5 109.332.667 164 .5l1 2c.329 30.574-.004 61.074-1 91.5-64.682.948-129.348.615-194-1-59.189-9.496-103.356-40.33-132.5-92.5-27.884-56.463-29.717-113.796-5.5-172Z"/></svg>