<?xml version="1.0" encoding="UTF-8"?>
<!DOCTYPE svg PUBLIC "-//W3C//DTD SVG 1.1//EN" "http://www.w3.org/Graphics/SVG/1.1/DTD/svg11.dtd">
<svg xmlns="http://www.w3.org/2000/svg" version="1.1" width="2400px" height="488px" style="shape-rendering:geometricPrecision; text-rendering:geometricPrecision; image-rendering:optimizeQuality; fill-rule:evenodd; clip-rule:evenodd" xmlns:xlink="http://www.w3.org/1999/xlink">
<g><path style="opacity:1" fill="#f53939" d="M 256.5,28.5 C 256.611,29.1174 256.944,29.6174 257.5,30C 263.85,30.7881 270.183,31.6215 276.5,32.5C 282.645,33.203 288.645,34.5363 294.5,36.5C 294.611,37.1174 294.944,37.6174 295.5,38C 298.827,38.6103 302.161,39.1103 305.5,39.5C 308.075,41.5755 311.075,42.9088 314.5,43.5C 317.192,46.1807 320.525,47.5141 324.5,47.5C 379.243,74.4253 417.076,116.759 438,174.5C 439.232,179.165 440.399,183.832 441.5,188.5C 441.77,193.45 442.77,198.117 444.5,202.5C 446.494,210.232 447.66,218.232 448,226.5C 448.5,240.507 448.333,254.507 447.5,268.5C 444.44,278.172 442.44,288.172 441.5,298.5C 439.154,306.22 436.654,313.887 434,321.5C 433.059,323.727 431.892,325.727 430.5,327.5C 429.85,327.804 429.183,328.137 428.5,328.5C 418.211,327.153 407.877,325.986 397.5,325C 388.559,322.773 379.893,319.106 371.5,314C 370.196,313.196 369.529,312.029 369.5,310.5C 370.398,306.495 371.732,302.661 373.5,299C 372.349,294.178 372.349,289.345 373.5,284.5C 373.538,279.729 374.204,275.062 375.5,270.5C 375.5,269.833 375.5,269.167 375.5,268.5C 379.05,258.956 380.716,248.956 380.5,238.5C 371.318,238.173 362.318,238.507 353.5,239.5C 353.5,240.833 353.5,242.167 353.5,243.5C 351.903,249.366 350.403,255.366 349,261.5C 348.503,264.146 348.336,266.813 348.5,269.5C 347.045,277.449 345.711,285.449 344.5,293.5C 343.325,293.719 342.325,293.386 341.5,292.5C 333.179,282.512 324.179,273.179 314.5,264.5C 311.564,259.895 307.898,255.895 303.5,252.5C 303.631,251.761 303.464,251.094 303,250.5C 299.165,246.492 294.998,242.826 290.5,239.5C 282.231,235.744 275.231,237.41 269.5,244.5C 266.593,246.315 265.259,248.981 265.5,252.5C 263.931,260.011 262.597,267.678 261.5,275.5C 259.438,282.226 258.104,289.226 257.5,296.5C 256.078,304.45 254.744,312.45 253.5,320.5C 252.215,323.589 251.549,326.922 251.5,330.5C 250.596,331.209 250.263,332.209 250.5,333.5C 245.056,334.108 240.056,333.442 235.5,331.5C 236.261,324.176 236.927,316.842 237.5,309.5C 237.5,308.833 237.5,308.167 237.5,307.5C 238.268,306.737 238.768,305.737 239,304.5C 239.772,288.977 241.772,273.644 245,258.5C 245.499,252.843 245.666,247.176 245.5,241.5C 246.889,236.731 247.556,231.731 247.5,226.5C 247.5,224.833 247.5,223.167 247.5,221.5C 248.461,219.735 248.795,217.735 248.5,215.5C 221.165,215.333 193.831,215.5 166.5,216C 165.748,216.671 165.414,217.504 165.5,218.5C 163.592,221.28 161.425,223.947 159,226.5C 157.878,228.407 157.045,230.407 156.5,232.5C 154.413,233.585 153.08,235.251 152.5,237.5C 148.141,243.205 144.141,249.205 140.5,255.5C 138.896,256.287 138.229,257.62 138.5,259.5C 160.167,259.5 181.833,259.5 203.5,259.5C 202.381,268.364 201.381,277.198 200.5,286C 181.142,286.783 161.809,286.617 142.5,285.5C 131.415,280.744 124.749,272.411 122.5,260.5C 121.645,247.183 122.979,234.183 126.5,221.5C 126.402,219.447 127.069,217.78 128.5,216.5C 130.903,214.73 132.57,212.397 133.5,209.5C 136.729,203.374 141.729,199.374 148.5,197.5C 150.117,196.962 151.784,196.629 153.5,196.5C 179.143,195.703 204.81,195.203 230.5,195C 231.406,193.301 231.739,191.467 231.5,189.5C 233.255,186.32 235.255,183.32 237.5,180.5C 239.326,178.853 240.66,176.853 241.5,174.5C 244.328,167.842 248.161,161.842 253,156.5C 253.006,153.736 254.172,151.736 256.5,150.5C 258.262,149.738 259.262,148.404 259.5,146.5C 260.167,146.5 260.5,146.167 260.5,145.5C 264.268,144.213 267.935,144.213 271.5,145.5C 271.174,154.349 271.507,163.016 272.5,171.5C 276.347,174.253 280.681,176.253 285.5,177.5C 288.235,180.201 291.569,181.868 295.5,182.5C 298.752,183.459 301.752,184.959 304.5,187C 297.058,190.275 289.725,193.775 282.5,197.5C 278.489,198.044 275.156,199.711 272.5,202.5C 271.506,212.653 271.172,222.986 271.5,233.5C 272.791,233.737 273.791,233.404 274.5,232.5C 277.925,231.909 280.925,230.575 283.5,228.5C 286.328,227.345 288.995,226.011 291.5,224.5C 292.5,224.5 293.5,224.5 294.5,224.5C 294.5,225.833 294.5,227.167 294.5,228.5C 317.994,229.498 341.661,229.831 365.5,229.5C 365.825,222.313 365.491,215.313 364.5,208.5C 364.5,207.833 364.167,207.5 363.5,207.5C 350.301,207.16 337.301,206.16 324.5,204.5C 326.685,204.296 328.685,203.63 330.5,202.5C 334.684,202.408 338.017,200.741 340.5,197.5C 344.696,196.215 348.696,194.548 352.5,192.5C 354.967,192.245 356.967,191.245 358.5,189.5C 359.568,188.566 360.901,188.232 362.5,188.5C 362.5,187.5 362.5,186.5 362.5,185.5C 359.366,184.759 356.366,183.759 353.5,182.5C 350.765,179.799 347.431,178.132 343.5,177.5C 337.085,175.732 331.085,173.065 325.5,169.5C 325.389,168.883 325.056,168.383 324.5,168C 342.196,168.156 359.529,167.322 376.5,165.5C 376.824,158.646 376.491,151.979 375.5,145.5C 375.5,145.167 375.5,144.833 375.5,144.5C 361.994,143.833 348.327,143.167 334.5,142.5C 333.335,141.416 332.002,140.583 330.5,140C 315.676,137.748 301.176,135.248 287,132.5C 284.67,134.032 282.67,133.698 281,131.5C 264.942,132.283 249.109,131.449 233.5,129C 230.274,127.628 226.941,126.462 223.5,125.5C 220.987,123.672 219.321,121.339 218.5,118.5C 216.133,117.836 214.133,116.503 212.5,114.5C 211.024,109.806 208.024,106.806 203.5,105.5C 203.5,104.5 203.5,103.5 203.5,102.5C 200.009,102.517 197.342,101.017 195.5,98C 190.009,97.0021 184.675,95.5021 179.5,93.5C 176.167,94.8333 172.833,94.8333 169.5,93.5C 163.701,95.266 157.868,96.9326 152,98.5C 150.054,100.962 147.554,102.296 144.5,102.5C 143.29,106.05 140.957,108.716 137.5,110.5C 134.32,114.707 131.32,119.04 128.5,123.5C 124.201,125.487 119.868,127.32 115.5,129C 98.8163,130.4 81.9829,131.233 65,131.5C 59.7843,131.494 54.951,130.827 50.5,129.5C 49.9232,126.45 51.0899,124.45 54,123.5C 55.3333,120.833 56.6667,118.167 58,115.5C 61.0976,113.072 63.431,110.072 65,106.5C 66.6147,105.614 68.1147,104.614 69.5,103.5C 73.2034,99.7977 76.5367,95.7977 79.5,91.5C 82.6293,87.8691 85.9626,84.3691 89.5,81C 94.0986,76.8285 99.0986,73.1618 104.5,70C 105.743,68.8455 106.743,67.5122 107.5,66C 112.579,64.5966 116.912,61.9299 120.5,58C 131.92,51.9562 143.587,46.4562 155.5,41.5C 159.395,40.5376 163.061,39.2043 166.5,37.5C 170.386,36.5098 174.386,35.5098 178.5,34.5C 182.985,33.6604 187.319,32.6604 191.5,31.5C 199.172,29.0774 207.172,27.9107 215.5,28C 229.177,27.4115 242.843,27.5781 256.5,28.5 Z"/></g>
<g><path style="opacity:0.976" fill="#f63737" d="M 2148.5,55.5 C 2176.99,53.822 2190.16,67.1554 2188,95.5C 2182.01,114.116 2169.18,122.283 2149.5,120C 2132.76,115.926 2124.1,105.259 2123.5,88C 2124.53,71.3997 2132.86,60.5664 2148.5,55.5 Z"/></g>
<g><path style="opacity:0.059" fill="#fedddd" d="M 392.5,392.5 C 391.596,391.791 391.263,390.791 391.5,389.5C 401.81,377.545 411.143,364.878 419.5,351.5C 422.78,348.612 424.78,344.945 425.5,340.5C 425.5,339.833 425.5,339.167 425.5,338.5C 426.931,337.22 427.598,335.553 427.5,333.5C 429.262,332.738 430.262,331.404 430.5,329.5C 430.5,328.833 430.5,328.167 430.5,327.5C 431.892,325.727 433.059,323.727 434,321.5C 436.654,313.887 439.154,306.22 441.5,298.5C 442.117,298.389 442.617,298.056 443,297.5C 444.894,287.891 446.394,278.225 447.5,268.5C 448.333,254.507 448.5,240.507 448,226.5C 447.66,218.232 446.494,210.232 444.5,202.5C 444.735,197.454 443.735,192.787 441.5,188.5C 440.399,183.832 439.232,179.165 438,174.5C 417.076,116.759 379.243,74.4253 324.5,47.5C 321.482,45.6001 318.149,44.2667 314.5,43.5C 311.075,42.9088 308.075,41.5755 305.5,39.5C 302.146,37.7424 298.479,36.7424 294.5,36.5C 288.645,34.5363 282.645,33.203 276.5,32.5C 276.082,31.7784 275.416,31.2784 274.5,31C 268.534,29.8406 262.534,29.0073 256.5,28.5C 242.843,27.5781 229.177,27.4115 215.5,28C 207.172,27.9107 199.172,29.0774 191.5,31.5C 186.739,31.1236 182.405,32.1236 178.5,34.5C 174.386,35.5098 170.386,36.5098 166.5,37.5C 162.22,37.6987 158.553,39.032 155.5,41.5C 143.587,46.4562 131.92,51.9562 120.5,58C 116.912,61.9299 112.579,64.5966 107.5,66C 106.743,67.5122 105.743,68.8455 104.5,70C 99.0986,73.1618 94.0986,76.8285 89.5,81C 85.9626,84.3691 82.6293,87.8691 79.5,91.5C 75.0427,94.6187 71.7094,98.6187 69.5,103.5C 68.1147,104.614 66.6147,105.614 65,106.5C 63.431,110.072 61.0976,113.072 58,115.5C 56.6667,118.167 55.3333,120.833 54,123.5C 51.0899,124.45 49.9232,126.45 50.5,129.5C 48.2729,130.401 47.2729,132.067 47.5,134.5C 46.8333,134.5 46.5,134.833 46.5,135.5C 46.1667,135.5 45.8333,135.5 45.5,135.5C 43.7265,138.18 42.3932,141.18 41.5,144.5C 41.5,144.833 41.5,145.167 41.5,145.5C 37.3957,149.159 35.0624,153.826 34.5,159.5C 27.4853,176.232 22.4853,193.565 19.5,211.5C 19.1667,211.5 18.8333,211.5 18.5,211.5C 18.9422,207.846 19.2756,204.179 19.5,200.5C 33.8566,131.938 71.8566,81.1046 133.5,48C 182.032,24.4351 232.699,18.7684 285.5,31C 357.579,51.1068 408.079,95.6068 437,164.5C 438.875,173.454 441.541,182.12 445,190.5C 461.51,267.141 444.01,334.475 392.5,392.5 Z"/></g>
<g><path style="opacity:1" fill="#f64161" d="M 281.5,138.5 C 289.968,139.836 298.635,140.669 307.5,141C 309.715,141.388 311.048,142.388 311.5,144C 317.491,144.499 323.491,144.666 329.5,144.5C 344.833,144.5 360.167,144.5 375.5,144.5C 375.5,144.833 375.5,145.167 375.5,145.5C 340.833,145.5 306.167,145.5 271.5,145.5C 267.935,144.213 264.268,144.213 260.5,145.5C 260.439,142.95 259.106,141.45 256.5,141C 239.164,140.02 221.831,139.02 204.5,138C 198.67,136.513 193.003,134.513 187.5,132C 178.412,129.159 169.412,128.826 160.5,131C 153.2,133.657 145.867,136.323 138.5,139C 107.505,140.068 76.5047,140.401 45.5,140C 44.5868,138.586 44.5868,137.086 45.5,135.5C 45.8333,135.5 46.1667,135.5 46.5,135.5C 46.5,136.167 46.5,136.833 46.5,137.5C 50.4861,138.166 54.6528,138.499 59,138.5C 80.8287,137.824 102.662,137.324 124.5,137C 127.877,136.548 131.211,135.882 134.5,135C 146.904,128.486 159.904,124.986 173.5,124.5C 187.814,125.989 201.481,129.822 214.5,136C 236.8,137.454 259.133,138.287 281.5,138.5 Z"/></g>
<g><path style="opacity:1" fill="#f5394f" d="M 281.5,138.5 C 259.133,138.287 236.8,137.454 214.5,136C 201.481,129.822 187.814,125.989 173.5,124.5C 159.904,124.986 146.904,128.486 134.5,135C 131.211,135.882 127.877,136.548 124.5,137C 102.662,137.324 80.8287,137.824 59,138.5C 54.6528,138.499 50.4861,138.166 46.5,137.5C 68.4103,136.905 90.2436,135.905 112,134.5C 125.825,133.229 138.992,129.062 151.5,122C 158.729,120.155 165.729,118.655 172.5,117.5C 186.169,119.002 199.003,123.002 211,129.5C 217.04,131.508 223.207,133.008 229.5,134C 247.218,136.086 264.551,137.586 281.5,138.5 Z"/></g>
<g><path style="opacity:1" fill="#f53747" d="M 329.5,144.5 C 323.491,144.666 317.491,144.499 311.5,144C 311.048,142.388 309.715,141.388 307.5,141C 298.635,140.669 289.968,139.836 281.5,138.5C 264.551,137.586 247.218,136.086 229.5,134C 223.207,133.008 217.04,131.508 211,129.5C 199.003,123.002 186.169,119.002 172.5,117.5C 165.729,118.655 158.729,120.155 151.5,122C 138.992,129.062 125.825,133.229 112,134.5C 90.2436,135.905 68.4103,136.905 46.5,137.5C 46.5,136.833 46.5,136.167 46.5,135.5C 46.5,134.833 46.8333,134.5 47.5,134.5C 47.62,135.586 48.2867,136.253 49.5,136.5C 69.0188,134.151 88.5188,133.151 108,133.5C 112.096,132.904 116.096,131.904 120,130.5C 120.333,130.833 120.667,131.167 121,131.5C 134.863,126.616 147.696,119.95 159.5,111.5C 164.285,110.659 168.952,109.659 173.5,108.5C 176.812,108.481 179.979,109.148 183,110.5C 183.772,110.355 184.439,110.022 185,109.5C 193.135,114.619 201.302,119.785 209.5,125C 214.849,127.759 220.516,129.759 226.5,131C 258.639,134.787 290.639,137.787 322.5,140C 325.289,140.241 327.956,140.908 330.5,142C 329.748,142.671 329.414,143.504 329.5,144.5 Z"/></g>
<g><path style="opacity:1" fill="#f53841" d="M 375.5,144.5 C 360.167,144.5 344.833,144.5 329.5,144.5C 329.414,143.504 329.748,142.671 330.5,142C 327.956,140.908 325.289,140.241 322.5,140C 290.639,137.787 258.639,134.787 226.5,131C 220.516,129.759 214.849,127.759 209.5,125C 201.302,119.785 193.135,114.619 185,109.5C 184.439,110.022 183.772,110.355 183,110.5C 179.979,109.148 176.812,108.481 173.5,108.5C 168.952,109.659 164.285,110.659 159.5,111.5C 147.696,119.95 134.863,126.616 121,131.5C 120.667,131.167 120.333,130.833 120,130.5C 116.096,131.904 112.096,132.904 108,133.5C 88.5188,133.151 69.0188,134.151 49.5,136.5C 48.2867,136.253 47.62,135.586 47.5,134.5C 47.2729,132.067 48.2729,130.401 50.5,129.5C 54.951,130.827 59.7843,131.494 65,131.5C 81.9829,131.233 98.8163,130.4 115.5,129C 119.868,127.32 124.201,125.487 128.5,123.5C 131.32,119.04 134.32,114.707 137.5,110.5C 140.957,108.716 143.29,106.05 144.5,102.5C 147.554,102.296 150.054,100.962 152,98.5C 157.868,96.9326 163.701,95.266 169.5,93.5C 172.833,94.8333 176.167,94.8333 179.5,93.5C 184.675,95.5021 190.009,97.0021 195.5,98C 197.342,101.017 200.009,102.517 203.5,102.5C 203.5,103.5 203.5,104.5 203.5,105.5C 208.024,106.806 211.024,109.806 212.5,114.5C 214.133,116.503 216.133,117.836 218.5,118.5C 219.321,121.339 220.987,123.672 223.5,125.5C 226.941,126.462 230.274,127.628 233.5,129C 249.109,131.449 264.942,132.283 281,131.5C 282.67,133.698 284.67,134.032 287,132.5C 301.176,135.248 315.676,137.748 330.5,140C 332.002,140.583 333.335,141.416 334.5,142.5C 348.327,143.167 361.994,143.833 375.5,144.5 Z"/></g>
<g><path style="opacity:0.988" fill="#f97270" d="M 79.5,91.5 C 76.5367,95.7977 73.2034,99.7977 69.5,103.5C 71.7094,98.6187 75.0427,94.6187 79.5,91.5 Z"/></g>
<g><path style="opacity:0.945" fill="#f97776" d="M 314.5,43.5 C 318.149,44.2667 321.482,45.6001 324.5,47.5C 320.525,47.5141 317.192,46.1807 314.5,43.5 Z"/></g>
<g><path style="opacity:0.761" fill="#fb9a99" d="M 166.5,37.5 C 163.061,39.2043 159.395,40.5376 155.5,41.5C 158.553,39.032 162.22,37.6987 166.5,37.5 Z"/></g>
<g><path style="opacity:0.878" fill="#fa7573" d="M 294.5,36.5 C 298.479,36.7424 302.146,37.7424 305.5,39.5C 302.161,39.1103 298.827,38.6103 295.5,38C 294.944,37.6174 294.611,37.1174 294.5,36.5 Z"/></g>
<g><path style="opacity:0.914" fill="#f97574" d="M 191.5,31.5 C 187.319,32.6604 182.985,33.6604 178.5,34.5C 182.405,32.1236 186.739,31.1236 191.5,31.5 Z"/></g>
<g><path style="opacity:0.976" fill="#f86866" d="M 256.5,28.5 C 262.534,29.0073 268.534,29.8406 274.5,31C 275.416,31.2784 276.082,31.7784 276.5,32.5C 270.183,31.6215 263.85,30.7881 257.5,30C 256.944,29.6174 256.611,29.1174 256.5,28.5 Z"/></g>
<g><path style="opacity:1" fill="#f74373" d="M 260.5,145.5 C 260.5,146.167 260.167,146.5 259.5,146.5C 259.5,145.5 259.5,144.5 259.5,143.5C 247.167,143.5 234.833,143.5 222.5,143.5C 226.312,142.676 230.312,142.176 234.5,142C 213.3,141.525 192.3,139.358 171.5,135.5C 166.479,136.671 161.479,138.171 156.5,140C 138.434,140.04 120.434,140.706 102.5,142C 117.802,143.192 133.135,143.859 148.5,144C 149.056,144.383 149.389,144.883 149.5,145.5C 148.833,146.167 148.167,146.833 147.5,147.5C 145.139,147.674 142.806,148.007 140.5,148.5C 139.77,146.955 138.437,146.122 136.5,146C 104.853,144.615 73.1862,144.115 41.5,144.5C 42.3932,141.18 43.7265,138.18 45.5,135.5C 44.5868,137.086 44.5868,138.586 45.5,140C 76.5047,140.401 107.505,140.068 138.5,139C 145.867,136.323 153.2,133.657 160.5,131C 169.412,128.826 178.412,129.159 187.5,132C 193.003,134.513 198.67,136.513 204.5,138C 221.831,139.02 239.164,140.02 256.5,141C 259.106,141.45 260.439,142.95 260.5,145.5 Z"/></g>
<g><path style="opacity:1" fill="#f75d91" d="M 222.5,143.5 C 213.827,143.666 205.16,143.5 196.5,143C 201.833,142.667 207.167,142.333 212.5,142C 201.53,140.835 190.53,140.335 179.5,140.5C 179.38,139.414 178.713,138.747 177.5,138.5C 171.766,136.867 166.433,137.7 161.5,141C 124.167,141.667 124.167,142.333 161.5,143C 160.944,143.383 160.611,143.883 160.5,144.5C 156.846,144.942 153.179,145.276 149.5,145.5C 149.389,144.883 149.056,144.383 148.5,144C 133.135,143.859 117.802,143.192 102.5,142C 120.434,140.706 138.434,140.04 156.5,140C 161.479,138.171 166.479,136.671 171.5,135.5C 192.3,139.358 213.3,141.525 234.5,142C 230.312,142.176 226.312,142.676 222.5,143.5 Z"/></g>
<g><path style="opacity:1" fill="#f898b9" d="M 179.5,140.5 C 173.558,138.699 167.892,139.199 162.5,142C 163.5,142.333 164.5,142.667 165.5,143C 164.095,144.269 162.429,144.769 160.5,144.5C 160.611,143.883 160.944,143.383 161.5,143C 124.167,142.333 124.167,141.667 161.5,141C 166.433,137.7 171.766,136.867 177.5,138.5C 178.713,138.747 179.38,139.414 179.5,140.5 Z"/></g>
<g><path style="opacity:1" fill="#f788ab" d="M 179.5,140.5 C 190.53,140.335 201.53,140.835 212.5,142C 207.167,142.333 201.833,142.667 196.5,143C 205.16,143.5 213.827,143.666 222.5,143.5C 234.833,143.5 247.167,143.5 259.5,143.5C 259.5,144.5 259.5,145.5 259.5,146.5C 259.262,148.404 258.262,149.738 256.5,150.5C 256.557,149.391 256.89,148.391 257.5,147.5C 258.404,146.791 258.737,145.791 258.5,144.5C 232.165,144.667 205.831,144.5 179.5,144C 179.167,143.667 178.833,143.333 178.5,143C 179.833,142.667 181.167,142.333 182.5,142C 181.263,141.768 180.263,141.268 179.5,140.5 Z"/></g>
<g><path style="opacity:0.994" fill="#f63737" d="M 602.5,143.5 C 628.911,140.962 651.078,149.296 669,168.5C 677.527,180.072 682.527,193.072 684,207.5C 684.5,251.832 684.667,296.165 684.5,340.5C 665.5,340.5 646.5,340.5 627.5,340.5C 627.667,300.832 627.5,261.165 627,221.5C 626.045,204.043 616.878,195.376 599.5,195.5C 581.124,196.264 569.957,205.598 566,223.5C 564.549,262.472 564.049,301.472 564.5,340.5C 545.833,340.5 527.167,340.5 508.5,340.5C 508.277,278.277 508.277,214.943 508.5,150.5C 525.5,150.5 542.5,150.5 559.5,150.5C 559.334,155.179 559.501,159.845 560,164.5C 571.639,152.263 585.806,145.263 602.5,143.5 Z"/></g>
<g><path style="opacity:0.984" fill="#f63737" d="M 1759.5,143.5 C 1778.82,142.247 1797.48,145.08 1815.5,152C 1841.06,166.598 1854.23,188.764 1855,218.5C 1855.5,259.165 1855.67,299.832 1855.5,340.5C 1838.83,340.5 1822.17,340.5 1805.5,340.5C 1805.67,336.154 1805.5,331.821 1805,327.5C 1782.9,347.318 1757.74,352.151 1729.5,342C 1702.73,329.995 1689.4,309.161 1689.5,279.5C 1690,250.628 1703.67,231.128 1730.5,221C 1755.48,214.115 1778.81,217.615 1800.5,231.5C 1801.2,203.86 1787.53,189.86 1759.5,189.5C 1743.13,190.141 1727.63,194.141 1713,201.5C 1712.23,201.355 1711.56,201.022 1711,200.5C 1705.77,188.381 1700.27,176.381 1694.5,164.5C 1708.4,156.029 1723.4,150.196 1739.5,147C 1746.32,145.919 1752.99,144.753 1759.5,143.5 Z M 1768.5,259.5 C 1778.08,259.322 1787.08,261.489 1795.5,266C 1805.06,275.965 1804.73,285.632 1794.5,295C 1783.04,300.677 1771.04,302.01 1758.5,299C 1750,295.324 1745.67,288.824 1745.5,279.5C 1745.42,270.808 1749.42,264.975 1757.5,262C 1761.31,261.205 1764.98,260.371 1768.5,259.5 Z"/></g>
<g><path style="opacity:0.993" fill="#f63737" d="M 1996.5,143.5 C 2023.48,140.92 2045.98,149.586 2064,169.5C 2074.24,184.896 2079.24,201.896 2079,220.5C 2079.5,260.499 2079.67,300.499 2079.5,340.5C 2060.5,340.5 2041.5,340.5 2022.5,340.5C 2022.93,300.478 2022.43,260.478 2021,220.5C 2018.12,200.461 2006.62,192.294 1986.5,196C 1973.51,198.995 1965.01,206.828 1961,219.5C 1960,225.814 1959.17,232.147 1958.5,238.5C 1959.1,271.865 1959.1,305.865 1958.5,340.5C 1939.83,340.5 1921.17,340.5 1902.5,340.5C 1902.5,277.167 1902.5,213.833 1902.5,150.5C 1919.83,150.5 1937.17,150.5 1954.5,150.5C 1954.33,154.846 1954.5,159.179 1955,163.5C 1966.53,151.941 1980.36,145.274 1996.5,143.5 Z"/></g>
<g><path style="opacity:0.983" fill="#f63737" d="M 2293.5,143.5 C 2314.43,141.947 2334.43,145.447 2353.5,154C 2376.95,169.723 2388.78,191.89 2389,220.5C 2389.5,260.499 2389.67,300.499 2389.5,340.5C 2372.83,340.5 2356.17,340.5 2339.5,340.5C 2339.67,336.154 2339.5,331.821 2339,327.5C 2322.38,343.619 2302.55,349.786 2279.5,346C 2255.16,342.653 2238,329.82 2228,307.5C 2222.09,289.476 2222.09,271.476 2228,253.5C 2236.97,234.539 2251.8,223.039 2272.5,219C 2294.92,214.916 2315.58,219.083 2334.5,231.5C 2335.2,203.865 2321.54,189.865 2293.5,189.5C 2277.13,190.135 2261.63,194.135 2247,201.5C 2246.23,201.355 2245.56,201.022 2245,200.5C 2239.36,188.727 2233.86,176.893 2228.5,165C 2229.27,163.779 2230.27,162.779 2231.5,162C 2251.27,152.397 2271.93,146.23 2293.5,143.5 Z M 2302.5,259.5 C 2312.08,259.322 2321.08,261.489 2329.5,266C 2339.13,275.984 2338.8,285.65 2328.5,295C 2317.04,300.677 2305.04,302.01 2292.5,299C 2283.71,295.754 2279.37,289.42 2279.5,280C 2278.83,272.33 2281.83,266.664 2288.5,263C 2293.22,261.506 2297.89,260.339 2302.5,259.5 Z"/></g>
<g><path style="opacity:1" fill="#fad2df" d="M 179.5,140.5 C 180.263,141.268 181.263,141.768 182.5,142C 181.167,142.333 179.833,142.667 178.5,143C 178.833,143.333 179.167,143.667 179.5,144C 205.831,144.5 232.165,144.667 258.5,144.5C 258.737,145.791 258.404,146.791 257.5,147.5C 241.18,146.167 224.514,145.5 207.5,145.5C 190.833,145.667 174.167,145.833 157.5,146C 154.173,146.61 150.839,147.11 147.5,147.5C 148.167,146.833 148.833,146.167 149.5,145.5C 153.179,145.276 156.846,144.942 160.5,144.5C 162.429,144.769 164.095,144.269 165.5,143C 164.5,142.667 163.5,142.333 162.5,142C 167.892,139.199 173.558,138.699 179.5,140.5 Z"/></g>
<g><path style="opacity:0.984" fill="#f63737" d="M 793.5,144.5 C 845.433,139.19 878.267,161.523 892,211.5C 895.492,228.589 895.658,245.589 892.5,262.5C 852.833,262.5 813.167,262.5 773.5,262.5C 777.132,286.297 790.965,299.297 815,301.5C 832.534,301.065 847.201,294.398 859,281.5C 868.5,293 878,304.5 887.5,316C 861.975,341.174 831.308,351.174 795.5,346C 759.077,340.706 735.244,320.539 724,285.5C 715.941,255.853 716.941,226.52 727,197.5C 739.297,167.363 761.463,149.696 793.5,144.5 Z M 806.5,189.5 C 829.813,190.171 842.48,202.171 844.5,225.5C 820.824,225.833 797.157,225.5 773.5,224.5C 776.748,205.259 787.748,193.592 806.5,189.5 Z"/></g>
<g><path style="opacity:0.985" fill="#f63737" d="M 1257.5,144.5 C 1285.77,142.233 1311.77,148.733 1335.5,164C 1336.06,164.725 1336.39,165.558 1336.5,166.5C 1331.08,180.113 1325.08,193.447 1318.5,206.5C 1300.99,195.04 1281.99,190.54 1261.5,193C 1252.78,196.609 1251.45,201.942 1257.5,209C 1273.23,216.864 1289.23,224.198 1305.5,231C 1339.61,248.3 1350.44,275.134 1338,311.5C 1325.49,332.296 1306.99,343.796 1282.5,346C 1250.9,349.516 1221.9,342.516 1195.5,325C 1194.94,324.275 1194.61,323.442 1194.5,322.5C 1200.06,308.383 1206.39,294.717 1213.5,281.5C 1227.25,290.253 1242.25,295.753 1258.5,298C 1264.5,298.667 1270.5,298.667 1276.5,298C 1285.17,295.826 1288.67,290.326 1287,281.5C 1283.4,275.271 1278.23,270.771 1271.5,268C 1251.55,261.196 1233.22,251.529 1216.5,239C 1202.93,225.632 1197.77,209.465 1201,190.5C 1204.06,171.434 1214.56,158.267 1232.5,151C 1240.76,148.019 1249.09,145.853 1257.5,144.5 Z"/></g>
<g><path style="opacity:0.99" fill="#f63737" d="M 1472.5,144.5 C 1495.26,141.561 1514.59,148.227 1530.5,164.5C 1549.13,147.169 1571.13,140.669 1596.5,145C 1631.77,150.941 1651.27,171.775 1655,207.5C 1656.43,251.815 1656.93,296.148 1656.5,340.5C 1637.5,340.5 1618.5,340.5 1599.5,340.5C 1599.96,298.137 1599.46,255.803 1598,213.5C 1596.35,201.682 1589.51,195.682 1577.5,195.5C 1561.49,195.016 1552.32,202.683 1550,218.5C 1548.53,259.132 1548.03,299.799 1548.5,340.5C 1529.5,340.5 1510.5,340.5 1491.5,340.5C 1491.67,299.832 1491.5,259.165 1491,218.5C 1487.02,200.416 1475.86,193.249 1457.5,197C 1447.24,201.307 1441.74,209.141 1441,220.5C 1439.55,260.475 1439.05,300.475 1439.5,340.5C 1420.83,340.5 1402.17,340.5 1383.5,340.5C 1383.11,278.361 1383.11,215.027 1383.5,150.5C 1400.5,150.5 1417.5,150.5 1434.5,150.5C 1434.33,155.511 1434.5,160.511 1435,165.5C 1440.91,157.948 1448.41,152.448 1457.5,149C 1462.58,147.32 1467.58,145.82 1472.5,144.5 Z"/></g>
<g><path style="opacity:1" fill="#f53b5a" d="M 41.5,145.5 C 41.5,145.167 41.5,144.833 41.5,144.5C 73.1862,144.115 104.853,144.615 136.5,146C 138.437,146.122 139.77,146.955 140.5,148.5C 137,150.751 133.334,152.751 129.5,154.5C 129.805,150.799 128.138,148.466 124.5,147.5C 96.8473,146.243 69.1807,145.576 41.5,145.5 Z"/></g>
<g><path style="opacity:1" fill="#fefdfd" d="M 257.5,147.5 C 256.89,148.391 256.557,149.391 256.5,150.5C 254.172,151.736 253.006,153.736 253,156.5C 248.161,161.842 244.328,167.842 241.5,174.5C 239.178,175.802 237.845,177.802 237.5,180.5C 235.255,183.32 233.255,186.32 231.5,189.5C 230.599,190.29 229.932,191.29 229.5,192.5C 205.164,192.333 180.831,192.5 156.5,193C 153.552,194.237 150.885,195.737 148.5,197.5C 141.729,199.374 136.729,203.374 133.5,209.5C 130.736,210.948 129.069,213.281 128.5,216.5C 127.069,217.78 126.402,219.447 126.5,221.5C 125.542,221.953 124.708,222.619 124,223.5C 120.066,235.821 119.566,248.155 122.5,260.5C 124.749,272.411 131.415,280.744 142.5,285.5C 143.263,286.268 144.263,286.768 145.5,287C 164.497,287.5 183.497,287.667 202.5,287.5C 203.206,277.504 203.872,267.504 204.5,257.5C 183.167,257.5 161.833,257.5 140.5,257.5C 140.5,256.833 140.5,256.167 140.5,255.5C 144.141,249.205 148.141,243.205 152.5,237.5C 154.587,236.415 155.92,234.749 156.5,232.5C 157.045,230.407 157.878,228.407 159,226.5C 161.425,223.947 163.592,221.28 165.5,218.5C 166.167,218.167 166.833,217.833 167.5,217.5C 193.833,217.5 220.167,217.5 246.5,217.5C 246.167,222.833 245.833,228.167 245.5,233.5C 245.5,236.167 245.5,238.833 245.5,241.5C 244.629,245.021 243.795,248.688 243,252.5C 240.926,270.844 239.092,289.177 237.5,307.5C 237.5,308.167 237.5,308.833 237.5,309.5C 236.566,312.656 235.899,315.989 235.5,319.5C 234.732,320.263 234.232,321.263 234,322.5C 233.501,326.486 233.334,330.486 233.5,334.5C 200.5,334.5 167.5,334.5 134.5,334.5C 119.696,331.509 107.863,323.842 99,311.5C 95.1722,306.46 92.0056,301.126 89.5,295.5C 89.7406,293.102 89.0739,291.102 87.5,289.5C 86.8333,289.5 86.5,289.167 86.5,288.5C 85.5289,282.629 84.1956,276.963 82.5,271.5C 82.5,270.833 82.5,270.167 82.5,269.5C 81.7433,259.518 81.41,249.518 81.5,239.5C 83.6138,212.298 93.6138,188.631 111.5,168.5C 117.138,163.35 123.138,158.683 129.5,154.5C 133.334,152.751 137,150.751 140.5,148.5C 142.806,148.007 145.139,147.674 147.5,147.5C 150.839,147.11 154.173,146.61 157.5,146C 174.167,145.833 190.833,145.667 207.5,145.5C 224.514,145.5 241.18,146.167 257.5,147.5 Z"/></g>
<g><path style="opacity:1" fill="#f7b8b9" d="M 271.5,145.5 C 306.167,145.5 340.833,145.5 375.5,145.5C 376.491,151.979 376.824,158.646 376.5,165.5C 376.167,165.5 375.833,165.5 375.5,165.5C 375.5,159.167 375.5,152.833 375.5,146.5C 341.167,146.5 306.833,146.5 272.5,146.5C 272.5,154.833 272.5,163.167 272.5,171.5C 271.507,163.016 271.174,154.349 271.5,145.5 Z"/></g>
<g><path style="opacity:1" fill="#fefcfc" d="M 375.5,165.5 C 356.821,165.167 338.155,165.5 319.5,166.5C 320.005,167.919 321.005,168.585 322.5,168.5C 323.391,169.11 324.391,169.443 325.5,169.5C 331.085,173.065 337.085,175.732 343.5,177.5C 346.235,180.201 349.569,181.868 353.5,182.5C 356.366,183.759 359.366,184.759 362.5,185.5C 362.5,186.5 362.5,187.5 362.5,188.5C 360.901,188.232 359.568,188.566 358.5,189.5C 356.033,189.755 354.033,190.755 352.5,192.5C 348.696,194.548 344.696,196.215 340.5,197.5C 336.337,197.691 333.004,199.357 330.5,202.5C 328.685,203.63 326.685,204.296 324.5,204.5C 323.508,204.328 322.842,204.662 322.5,205.5C 321.005,205.415 320.005,206.081 319.5,207.5C 334.152,208.499 348.818,208.833 363.5,208.5C 363.5,214.833 363.5,221.167 363.5,227.5C 340.833,227.5 318.167,227.5 295.5,227.5C 295.5,226.167 295.5,224.833 295.5,223.5C 293.901,223.232 292.568,223.566 291.5,224.5C 288.995,226.011 286.328,227.345 283.5,228.5C 280.316,229.643 276.983,230.309 273.5,230.5C 273.5,221.167 273.5,211.833 273.5,202.5C 276.948,201.61 279.948,199.943 282.5,197.5C 289.725,193.775 297.058,190.275 304.5,187C 301.752,184.959 298.752,183.459 295.5,182.5C 292.765,179.799 289.431,178.132 285.5,177.5C 280.681,176.253 276.347,174.253 272.5,171.5C 272.5,163.167 272.5,154.833 272.5,146.5C 306.833,146.5 341.167,146.5 375.5,146.5C 375.5,152.833 375.5,159.167 375.5,165.5 Z"/></g>
<g><path style="opacity:1" fill="#f5393f" d="M 41.5,145.5 C 69.1807,145.576 96.8473,146.243 124.5,147.5C 128.138,148.466 129.805,150.799 129.5,154.5C 123.138,158.683 117.138,163.35 111.5,168.5C 111.5,166.167 111.5,163.833 111.5,161.5C 101.14,158.162 90.4736,156.496 79.5,156.5C 67.8008,157.046 56.3008,157.046 45,156.5C 40.9876,156.356 37.4876,157.356 34.5,159.5C 35.0624,153.826 37.3957,149.159 41.5,145.5 Z"/></g>
<g><path style="opacity:0.987" fill="#f63737" d="M 904.5,151.5 C 923.326,150.503 942.326,150.17 961.5,150.5C 970.864,187.622 980.697,224.622 991,261.5C 1003.34,225.982 1015.17,190.316 1026.5,154.5C 1039.08,154.178 1051.58,154.511 1064,155.5C 1074.67,190.833 1085.33,226.167 1096,261.5C 1105.66,224.517 1115.16,187.517 1124.5,150.5C 1143.17,150.5 1161.83,150.5 1180.5,150.5C 1162.83,213.833 1145.17,277.167 1127.5,340.5C 1110.49,340.833 1093.49,340.499 1076.5,339.5C 1066.1,307.797 1055.6,276.13 1045,244.5C 1033,276.345 1021.5,308.345 1010.5,340.5C 993.256,340.825 976.09,340.492 959,339.5C 941.095,276.632 922.928,213.966 904.5,151.5 Z"/></g>
<g><path style="opacity:0.981" fill="#f63737" d="M 2127.5,150.5 C 2146.5,150.5 2165.5,150.5 2184.5,150.5C 2184.5,213.833 2184.5,277.167 2184.5,340.5C 2165.5,340.5 2146.5,340.5 2127.5,340.5C 2127.5,277.167 2127.5,213.833 2127.5,150.5 Z"/></g>
<g><path style="opacity:1" fill="#f53838" d="M 111.5,168.5 C 93.6138,188.631 83.6138,212.298 81.5,239.5C 80.8345,243.151 80.5012,246.985 80.5,251C 80.3703,257.399 81.037,263.566 82.5,269.5C 82.5,270.167 82.5,270.833 82.5,271.5C 82.7341,277.545 84.0675,283.212 86.5,288.5C 86.5,289.167 86.8333,289.5 87.5,289.5C 87.2594,291.898 87.9261,293.898 89.5,295.5C 92.0056,301.126 95.1722,306.46 99,311.5C 107.863,323.842 119.696,331.509 134.5,334.5C 135.833,335.167 137.167,335.833 138.5,336.5C 143.975,337.489 149.642,337.822 155.5,337.5C 179.551,341.475 203.884,343.975 228.5,345C 230.324,347.081 231.991,346.915 233.5,344.5C 234.795,345.098 236.128,345.598 237.5,346C 249.7,346.196 261.866,346.696 274,347.5C 284.358,346.634 293.858,349.301 302.5,355.5C 304.021,359.771 307.021,362.437 311.5,363.5C 311.5,364.833 311.5,366.167 311.5,367.5C 312.552,367.351 313.552,367.517 314.5,368C 320.917,373.603 328.251,377.436 336.5,379.5C 343.018,379.802 349.685,379.469 356.5,378.5C 359.388,376.305 362.721,374.972 366.5,374.5C 367.287,373.758 367.953,372.925 368.5,372C 371.608,370.727 374.608,369.227 377.5,367.5C 379.677,364.827 381.177,361.827 382,358.5C 384.94,356.117 387.774,353.617 390.5,351C 399.9,347.767 409.567,346.267 419.5,346.5C 419.5,347.5 419.5,348.5 419.5,349.5C 419.5,350.167 419.5,350.833 419.5,351.5C 411.143,364.878 401.81,377.545 391.5,389.5C 385.119,395.215 379.119,401.215 373.5,407.5C 369.949,409.111 366.949,411.444 364.5,414.5C 363.5,415.167 362.5,415.833 361.5,416.5C 358.467,418.016 355.8,420.016 353.5,422.5C 348.661,424.416 344.328,427.082 340.5,430.5C 336.288,432.437 331.955,434.104 327.5,435.5C 324.061,437.869 320.728,440.202 317.5,442.5C 316.167,442.833 314.833,443.167 313.5,443.5C 310.546,444.428 307.546,445.261 304.5,446C 303.058,446.377 302.058,447.21 301.5,448.5C 295.256,449.619 289.256,451.285 283.5,453.5C 278.404,453.044 273.738,454.044 269.5,456.5C 268.5,456.5 267.5,456.5 266.5,456.5C 245.195,458.597 223.862,458.931 202.5,457.5C 190.42,455.541 178.42,453.041 166.5,450C 103.704,427.38 59.0375,385.213 32.5,323.5C 32.7221,319.158 31.3888,315.491 28.5,312.5C 24.9212,302.315 22.2545,291.982 20.5,281.5C 20.5,281.167 20.5,280.833 20.5,280.5C 17.0633,257.531 16.7299,234.531 19.5,211.5C 22.4853,193.565 27.4853,176.232 34.5,159.5C 37.4876,157.356 40.9876,156.356 45,156.5C 56.3008,157.046 67.8008,157.046 79.5,156.5C 90.4736,156.496 101.14,158.162 111.5,161.5C 111.5,163.833 111.5,166.167 111.5,168.5 Z"/></g>
<g><path style="opacity:1" fill="#f5a5a4" d="M 375.5,165.5 C 357.671,166.332 339.671,166.832 321.5,167C 322.056,167.383 322.389,167.883 322.5,168.5C 321.005,168.585 320.005,167.919 319.5,166.5C 338.155,165.5 356.821,165.167 375.5,165.5 Z"/></g>
<g><path style="opacity:1" fill="#f26160" d="M 375.5,165.5 C 375.833,165.5 376.167,165.5 376.5,165.5C 359.529,167.322 342.196,168.156 324.5,168C 325.056,168.383 325.389,168.883 325.5,169.5C 324.391,169.443 323.391,169.11 322.5,168.5C 322.389,167.883 322.056,167.383 321.5,167C 339.671,166.832 357.671,166.332 375.5,165.5 Z"/></g>
<g><path style="opacity:1" fill="#f48785" d="M 285.5,177.5 C 289.431,178.132 292.765,179.799 295.5,182.5C 291.569,181.868 288.235,180.201 285.5,177.5 Z"/></g>
<g><path style="opacity:1" fill="#f6a2a1" d="M 343.5,177.5 C 347.431,178.132 350.765,179.799 353.5,182.5C 349.569,181.868 346.235,180.201 343.5,177.5 Z"/></g>
<g><path style="opacity:1" fill="#f59291" d="M 241.5,174.5 C 240.66,176.853 239.326,178.853 237.5,180.5C 237.845,177.802 239.178,175.802 241.5,174.5 Z"/></g>
<g><path style="opacity:1" fill="#f38987" d="M 358.5,189.5 C 356.967,191.245 354.967,192.245 352.5,192.5C 354.033,190.755 356.033,189.755 358.5,189.5 Z"/></g>
<g><path style="opacity:1" fill="#f9c4c4" d="M 229.5,192.5 C 205.521,194.326 181.187,195.159 156.5,195C 155.263,195.232 154.263,195.732 153.5,196.5C 151.784,196.629 150.117,196.962 148.5,197.5C 150.885,195.737 153.552,194.237 156.5,193C 180.831,192.5 205.164,192.333 229.5,192.5 Z"/></g>
<g><path style="opacity:1" fill="#f35557" d="M 231.5,189.5 C 231.739,191.467 231.406,193.301 230.5,195C 204.81,195.203 179.143,195.703 153.5,196.5C 154.263,195.732 155.263,195.232 156.5,195C 181.187,195.159 205.521,194.326 229.5,192.5C 229.932,191.29 230.599,190.29 231.5,189.5 Z"/></g>
<g><path style="opacity:0.8" fill="#fa8181" d="M 441.5,188.5 C 443.735,192.787 444.735,197.454 444.5,202.5C 442.77,198.117 441.77,193.45 441.5,188.5 Z"/></g>
<g><path style="opacity:1" fill="#f67773" d="M 340.5,197.5 C 338.017,200.741 334.684,202.408 330.5,202.5C 333.004,199.357 336.337,197.691 340.5,197.5 Z"/></g>
<g><path style="opacity:1" fill="#f39190" d="M 272.5,202.5 C 271.859,212.889 272.526,222.889 274.5,232.5C 273.791,233.404 272.791,233.737 271.5,233.5C 271.172,222.986 271.506,212.653 272.5,202.5 Z"/></g>
<g><path style="opacity:1" fill="#f9cbc9" d="M 282.5,197.5 C 279.948,199.943 276.948,201.61 273.5,202.5C 273.5,211.833 273.5,221.167 273.5,230.5C 276.983,230.309 280.316,229.643 283.5,228.5C 280.925,230.575 277.925,231.909 274.5,232.5C 272.526,222.889 271.859,212.889 272.5,202.5C 275.156,199.711 278.489,198.044 282.5,197.5 Z"/></g>
<g><path style="opacity:1" fill="#f36766" d="M 324.5,204.5 C 337.301,206.16 350.301,207.16 363.5,207.5C 349.496,207.667 335.496,207.5 321.5,207C 322.056,206.617 322.389,206.117 322.5,205.5C 322.842,204.662 323.508,204.328 324.5,204.5 Z"/></g>
<g><path style="opacity:1" fill="#f58a87" d="M 133.5,209.5 C 132.57,212.397 130.903,214.73 128.5,216.5C 129.069,213.281 130.736,210.948 133.5,209.5 Z"/></g>
<g><path style="opacity:1" fill="#f18c8c" d="M 247.5,221.5 C 247.5,219.833 247.5,218.167 247.5,216.5C 220.661,216.169 193.995,216.502 167.5,217.5C 166.833,217.833 166.167,218.167 165.5,218.5C 165.414,217.504 165.748,216.671 166.5,216C 193.831,215.5 221.165,215.333 248.5,215.5C 248.795,217.735 248.461,219.735 247.5,221.5 Z"/></g>
<g><path style="opacity:1" fill="#f8dbda" d="M 167.5,217.5 C 193.995,216.502 220.661,216.169 247.5,216.5C 247.5,218.167 247.5,219.833 247.5,221.5C 247.5,223.167 247.5,224.833 247.5,226.5C 246.833,228.833 246.167,231.167 245.5,233.5C 245.833,228.167 246.167,222.833 246.5,217.5C 220.167,217.5 193.833,217.5 167.5,217.5 Z"/></g>
<g><path style="opacity:1" fill="#f6b6b6" d="M 322.5,205.5 C 322.389,206.117 322.056,206.617 321.5,207C 335.496,207.5 349.496,207.667 363.5,207.5C 364.167,207.5 364.5,207.833 364.5,208.5C 364.5,215.167 364.5,221.833 364.5,228.5C 341.167,228.5 317.833,228.5 294.5,228.5C 294.5,227.167 294.5,225.833 294.5,224.5C 293.5,224.5 292.5,224.5 291.5,224.5C 292.568,223.566 293.901,223.232 295.5,223.5C 295.5,224.833 295.5,226.167 295.5,227.5C 318.167,227.5 340.833,227.5 363.5,227.5C 363.5,221.167 363.5,214.833 363.5,208.5C 348.818,208.833 334.152,208.499 319.5,207.5C 320.005,206.081 321.005,205.415 322.5,205.5 Z"/></g>
<g><path style="opacity:1" fill="#f37171" d="M 364.5,208.5 C 365.491,215.313 365.825,222.313 365.5,229.5C 341.661,229.831 317.994,229.498 294.5,228.5C 317.833,228.5 341.167,228.5 364.5,228.5C 364.5,221.833 364.5,215.167 364.5,208.5 Z"/></g>
<g><path style="opacity:1" fill="#f3706f" d="M 247.5,226.5 C 247.556,231.731 246.889,236.731 245.5,241.5C 245.5,238.833 245.5,236.167 245.5,233.5C 246.167,231.167 246.833,228.833 247.5,226.5 Z"/></g>
<g><path style="opacity:1" fill="#f6a1a0" d="M 156.5,232.5 C 155.92,234.749 154.587,236.415 152.5,237.5C 153.08,235.251 154.413,233.585 156.5,232.5 Z"/></g>
<g><path style="opacity:0.252" fill="#fef2f1" d="M 19.5,200.5 C 19.2756,204.179 18.9422,207.846 18.5,211.5C 15.7114,234.183 15.8781,256.85 19,279.5C 19.3826,280.056 19.8826,280.389 20.5,280.5C 20.5,280.833 20.5,281.167 20.5,281.5C 20.7845,283.415 20.4511,285.081 19.5,286.5C 16.0983,272.418 14.765,258.084 15.5,243.5C 15.6667,235.5 15.8333,227.5 16,219.5C 16.5394,212.916 17.7061,206.583 19.5,200.5 Z"/></g>
<g><path style="opacity:0.693" fill="#fba4a4" d="M 18.5,211.5 C 18.8333,211.5 19.1667,211.5 19.5,211.5C 16.7299,234.531 17.0633,257.531 20.5,280.5C 19.8826,280.389 19.3826,280.056 19,279.5C 15.8781,256.85 15.7114,234.183 18.5,211.5 Z"/></g>
<g><path style="opacity:1" fill="#f9c9c7" d="M 290.5,239.5 C 286.154,239.334 281.821,239.501 277.5,240C 274.691,241.323 272.025,242.823 269.5,244.5C 275.231,237.41 282.231,235.744 290.5,239.5 Z"/></g>
<g><path style="opacity:1" fill="#f06260" d="M 353.5,239.5 C 362.318,238.507 371.318,238.173 380.5,238.5C 380.716,248.956 379.05,258.956 375.5,268.5C 377.093,258.869 378.426,249.202 379.5,239.5C 370.833,239.5 362.167,239.5 353.5,239.5 Z"/></g>
<g><path style="opacity:1" fill="#fefbfb" d="M 290.5,239.5 C 294.998,242.826 299.165,246.492 303,250.5C 303.464,251.094 303.631,251.761 303.5,252.5C 306.436,257.105 310.102,261.105 314.5,264.5C 324.179,273.179 333.179,282.512 341.5,292.5C 342.325,293.386 343.325,293.719 344.5,293.5C 345.711,285.449 347.045,277.449 348.5,269.5C 351.226,261.163 352.893,252.496 353.5,243.5C 353.5,242.167 353.5,240.833 353.5,239.5C 362.167,239.5 370.833,239.5 379.5,239.5C 378.426,249.202 377.093,258.869 375.5,268.5C 375.5,269.167 375.5,269.833 375.5,270.5C 373.067,275.788 371.734,281.455 371.5,287.5C 370.138,294.41 369.138,301.41 368.5,308.5C 367.525,311.311 366.858,314.311 366.5,317.5C 364.844,321.458 363.177,325.458 361.5,329.5C 360.167,330.167 359.167,331.167 358.5,332.5C 357.508,332.328 356.842,332.662 356.5,333.5C 350.654,335.233 344.654,335.9 338.5,335.5C 338.843,333.517 338.176,332.183 336.5,331.5C 336.5,330.833 336.167,330.5 335.5,330.5C 332.542,325.874 328.876,321.874 324.5,318.5C 323.5,316.833 322.167,315.5 320.5,314.5C 318.234,310.564 315.234,307.231 311.5,304.5C 304.103,295.103 295.769,286.769 286.5,279.5C 285.26,288.85 283.926,298.183 282.5,307.5C 280.42,312.855 279.42,318.522 279.5,324.5C 279.5,324.833 279.5,325.167 279.5,325.5C 278.469,327.961 277.802,330.627 277.5,333.5C 269.167,333.5 260.833,333.5 252.5,333.5C 253.08,329.19 253.414,324.857 253.5,320.5C 254.744,312.45 256.078,304.45 257.5,296.5C 259.562,289.774 260.896,282.774 261.5,275.5C 262.597,267.678 263.931,260.011 265.5,252.5C 267.017,249.965 268.35,247.298 269.5,244.5C 272.025,242.823 274.691,241.323 277.5,240C 281.821,239.501 286.154,239.334 290.5,239.5 Z"/></g>
<g><path style="opacity:1" fill="#f45b57" d="M 126.5,221.5 C 122.979,234.183 121.645,247.183 122.5,260.5C 119.566,248.155 120.066,235.821 124,223.5C 124.708,222.619 125.542,221.953 126.5,221.5 Z"/></g>
<g><path style="opacity:1" fill="#f38382" d="M 81.5,239.5 C 81.41,249.518 81.7433,259.518 82.5,269.5C 81.037,263.566 80.3703,257.399 80.5,251C 80.5012,246.985 80.8345,243.151 81.5,239.5 Z"/></g>
<g><path style="opacity:1" fill="#f8c5c4" d="M 353.5,243.5 C 352.893,252.496 351.226,261.163 348.5,269.5C 348.336,266.813 348.503,264.146 349,261.5C 350.403,255.366 351.903,249.366 353.5,243.5 Z"/></g>
<g><path style="opacity:1" fill="#f59b9a" d="M 269.5,244.5 C 268.35,247.298 267.017,249.965 265.5,252.5C 265.259,248.981 266.593,246.315 269.5,244.5 Z"/></g>
<g><path style="opacity:1" fill="#f7bcbb" d="M 303.5,252.5 C 307.898,255.895 311.564,259.895 314.5,264.5C 310.102,261.105 306.436,257.105 303.5,252.5 Z"/></g>
<g><path style="opacity:1" fill="#f56c67" d="M 245.5,241.5 C 245.666,247.176 245.499,252.843 245,258.5C 241.772,273.644 239.772,288.977 239,304.5C 238.768,305.737 238.268,306.737 237.5,307.5C 239.092,289.177 240.926,270.844 243,252.5C 243.795,248.688 244.629,245.021 245.5,241.5 Z"/></g>
<g><path style="opacity:1" fill="#f7c8c7" d="M 140.5,257.5 C 161.833,257.5 183.167,257.5 204.5,257.5C 203.872,267.504 203.206,277.504 202.5,287.5C 183.497,287.667 164.497,287.5 145.5,287C 144.263,286.768 143.263,286.268 142.5,285.5C 161.809,286.617 181.142,286.783 200.5,286C 201.381,277.198 202.381,268.364 203.5,259.5C 182.5,258.833 161.5,258.167 140.5,257.5 Z"/></g>
<g><path style="opacity:1" fill="#f09191" d="M 140.5,255.5 C 140.5,256.167 140.5,256.833 140.5,257.5C 161.5,258.167 182.5,258.833 203.5,259.5C 181.833,259.5 160.167,259.5 138.5,259.5C 138.229,257.62 138.896,256.287 140.5,255.5 Z"/></g>
<g><path style="opacity:1" fill="#f48e8e" d="M 375.5,270.5 C 374.204,275.062 373.538,279.729 373.5,284.5C 372.833,285.5 372.167,286.5 371.5,287.5C 371.734,281.455 373.067,275.788 375.5,270.5 Z"/></g>
<g><path style="opacity:1" fill="#f47977" d="M 82.5,271.5 C 84.1956,276.963 85.5289,282.629 86.5,288.5C 84.0675,283.212 82.7341,277.545 82.5,271.5 Z"/></g>
<g><path style="opacity:1" fill="#f49594" d="M 261.5,275.5 C 260.896,282.774 259.562,289.774 257.5,296.5C 258.104,289.226 259.438,282.226 261.5,275.5 Z"/></g>
<g><path style="opacity:0.561" fill="#fb8f8d" d="M 447.5,268.5 C 446.394,278.225 444.894,287.891 443,297.5C 442.617,298.056 442.117,298.389 441.5,298.5C 442.44,288.172 444.44,278.172 447.5,268.5 Z"/></g>
<g><path style="opacity:1" fill="#f58483" d="M 87.5,289.5 C 89.0739,291.102 89.7406,293.102 89.5,295.5C 87.9261,293.898 87.2594,291.898 87.5,289.5 Z"/></g>
<g><path style="opacity:1" fill="#f4787d" d="M 311.5,304.5 C 315.234,307.231 318.234,310.564 320.5,314.5C 316.766,311.769 313.766,308.436 311.5,304.5 Z"/></g>
<g><path style="opacity:1" fill="#f53a43" d="M 311.5,304.5 C 313.766,308.436 316.766,311.769 320.5,314.5C 321.038,316.117 321.371,317.784 321.5,319.5C 314.533,321.35 307.533,323.85 300.5,327C 293.932,328.785 287.265,329.951 280.5,330.5C 280.5,328.5 280.5,326.5 280.5,324.5C 281.686,318.9 282.353,313.233 282.5,307.5C 283.926,298.183 285.26,288.85 286.5,279.5C 295.769,286.769 304.103,295.103 311.5,304.5 Z"/></g>
<g><path style="opacity:1" fill="#f53b4a" d="M 373.5,284.5 C 372.349,289.345 372.349,294.178 373.5,299C 371.732,302.661 370.398,306.495 369.5,310.5C 369.529,312.029 370.196,313.196 371.5,314C 379.893,319.106 388.559,322.773 397.5,325C 407.877,325.986 418.211,327.153 428.5,328.5C 429.183,328.137 429.85,327.804 430.5,327.5C 430.5,328.167 430.5,328.833 430.5,329.5C 408.902,333.01 388.068,330.01 368,320.5C 368.158,316.541 368.325,312.541 368.5,308.5C 369.138,301.41 370.138,294.41 371.5,287.5C 372.167,286.5 372.833,285.5 373.5,284.5 Z"/></g>
<g><path style="opacity:1" fill="#f58383" d="M 282.5,307.5 C 282.353,313.233 281.686,318.9 280.5,324.5C 280.167,324.5 279.833,324.5 279.5,324.5C 279.42,318.522 280.42,312.855 282.5,307.5 Z"/></g>
<g><path style="opacity:0.816" fill="#f97876" d="M 28.5,312.5 C 31.3888,315.491 32.7221,319.158 32.5,323.5C 30.7225,320.098 29.3891,316.431 28.5,312.5 Z"/></g>
<g><path style="opacity:1" fill="#f597a6" d="M 366.5,317.5 C 366.041,320.877 365.374,324.211 364.5,327.5C 363.5,328.167 362.5,328.833 361.5,329.5C 363.177,325.458 364.844,321.458 366.5,317.5 Z"/></g>
<g><path style="opacity:1" fill="#f48183" d="M 237.5,309.5 C 236.927,316.842 236.261,324.176 235.5,331.5C 235.167,331.5 234.833,331.5 234.5,331.5C 234.505,327.466 234.838,323.466 235.5,319.5C 235.899,315.989 236.566,312.656 237.5,309.5 Z"/></g>
<g><path style="opacity:1" fill="#f74475" d="M 328.5,324.5 C 333.719,327.079 333.719,329.579 328.5,332C 312.02,333.624 295.686,333.791 279.5,332.5C 291.861,332.679 304.194,332.179 316.5,331C 320.414,330.041 324.081,328.541 327.5,326.5C 328.298,326.043 328.631,325.376 328.5,324.5 Z"/></g>
<g><path style="opacity:1" fill="#f63d61" d="M 320.5,314.5 C 322.167,315.5 323.5,316.833 324.5,318.5C 325.415,320.754 326.748,322.754 328.5,324.5C 328.631,325.376 328.298,326.043 327.5,326.5C 324.081,328.541 320.414,330.041 316.5,331C 304.194,332.179 291.861,332.679 279.5,332.5C 279.5,330.167 279.5,327.833 279.5,325.5C 279.5,325.167 279.5,324.833 279.5,324.5C 279.833,324.5 280.167,324.5 280.5,324.5C 280.5,326.5 280.5,328.5 280.5,330.5C 287.265,329.951 293.932,328.785 300.5,327C 307.533,323.85 314.533,321.35 321.5,319.5C 321.371,317.784 321.038,316.117 320.5,314.5 Z"/></g>
<g><path style="opacity:1" fill="#f63e5e" d="M 368.5,308.5 C 368.325,312.541 368.158,316.541 368,320.5C 388.068,330.01 408.902,333.01 430.5,329.5C 430.262,331.404 429.262,332.738 427.5,333.5C 409.491,333.381 391.491,332.881 373.5,332C 370.141,330.953 367.141,329.453 364.5,327.5C 365.374,324.211 366.041,320.877 366.5,317.5C 366.858,314.311 367.525,311.311 368.5,308.5 Z"/></g>
<g><path style="opacity:1" fill="#f6b1c5" d="M 253.5,320.5 C 253.414,324.857 253.08,329.19 252.5,333.5C 260.833,333.5 269.167,333.5 277.5,333.5C 269.016,334.493 260.349,334.826 251.5,334.5C 251.5,333.167 251.5,331.833 251.5,330.5C 251.549,326.922 252.215,323.589 253.5,320.5 Z"/></g>
<g><path style="opacity:1" fill="#f9ced6" d="M 235.5,319.5 C 234.838,323.466 234.505,327.466 234.5,331.5C 234.634,333.292 234.301,334.958 233.5,336.5C 201.833,336.5 170.167,336.5 138.5,336.5C 137.167,335.833 135.833,335.167 134.5,334.5C 167.5,334.5 200.5,334.5 233.5,334.5C 233.334,330.486 233.501,326.486 234,322.5C 234.232,321.263 234.732,320.263 235.5,319.5 Z"/></g>
<g><path style="opacity:1" fill="#f7447a" d="M 364.5,327.5 C 367.141,329.453 370.141,330.953 373.5,332C 391.491,332.881 409.491,333.381 427.5,333.5C 427.598,335.553 426.931,337.22 425.5,338.5C 414.346,337.505 403.012,337.172 391.5,337.5C 393.019,336.59 394.685,335.757 396.5,335C 384.511,334.056 372.511,333.223 360.5,332.5C 361.127,331.583 361.461,330.583 361.5,329.5C 362.5,328.833 363.5,328.167 364.5,327.5 Z"/></g>
<g><path style="opacity:1" fill="#f53740" d="M 155.5,337.5 C 164.167,337.5 172.833,337.5 181.5,337.5C 184.287,338.477 187.287,338.81 190.5,338.5C 193.897,339.198 197.397,339.865 201,340.5C 201.414,340.043 201.914,339.709 202.5,339.5C 230.207,342.546 258.207,344.379 286.5,345C 302.203,347.892 316.369,354.058 329,363.5C 329.414,363.043 329.914,362.709 330.5,362.5C 333.044,364.019 335.711,365.352 338.5,366.5C 342.214,366.214 345.88,366.214 349.5,366.5C 351.828,365.783 353.995,364.783 356,363.5C 356.772,363.645 357.439,363.978 358,364.5C 368.859,355.909 381.026,349.743 394.5,346C 403.405,345.024 412.239,343.857 421,342.5C 421.483,343.448 421.649,344.448 421.5,345.5C 421.34,347.153 420.674,348.486 419.5,349.5C 419.5,348.5 419.5,347.5 419.5,346.5C 409.567,346.267 399.9,347.767 390.5,351C 387.774,353.617 384.94,356.117 382,358.5C 381.177,361.827 379.677,364.827 377.5,367.5C 374.608,369.227 371.608,370.727 368.5,372C 367.953,372.925 367.287,373.758 366.5,374.5C 362.721,374.972 359.388,376.305 356.5,378.5C 349.685,379.469 343.018,379.802 336.5,379.5C 328.251,377.436 320.917,373.603 314.5,368C 313.552,367.517 312.552,367.351 311.5,367.5C 311.5,366.167 311.5,364.833 311.5,363.5C 307.021,362.437 304.021,359.771 302.5,355.5C 293.858,349.301 284.358,346.634 274,347.5C 261.866,346.696 249.7,346.196 237.5,346C 236.128,345.598 234.795,345.098 233.5,344.5C 231.991,346.915 230.324,347.081 228.5,345C 203.884,343.975 179.551,341.475 155.5,337.5 Z"/></g>
<g><path style="opacity:1" fill="#f75a8b" d="M 324.5,318.5 C 328.876,321.874 332.542,325.874 335.5,330.5C 334.152,332.48 332.152,333.647 329.5,334C 323.167,334.333 316.833,334.667 310.5,335C 317.059,336.255 323.726,336.922 330.5,337C 335.939,339.371 341.606,340.037 347.5,339C 355.003,337.031 362.67,336.031 370.5,336C 371.5,335.667 372.5,335.333 373.5,335C 368.067,335.118 363.067,334.285 358.5,332.5C 359.167,331.167 360.167,330.167 361.5,329.5C 361.461,330.583 361.127,331.583 360.5,332.5C 372.511,333.223 384.511,334.056 396.5,335C 394.685,335.757 393.019,336.59 391.5,337.5C 386.167,337.5 380.833,337.5 375.5,337.5C 371.154,337.334 366.821,337.501 362.5,338C 355.384,339.737 348.217,341.237 341,342.5C 336,342.042 331.167,340.875 326.5,339C 319.157,338.444 311.823,337.777 304.5,337C 286.649,336.726 268.982,335.893 251.5,334.5C 260.349,334.826 269.016,334.493 277.5,333.5C 277.802,330.627 278.469,327.961 279.5,325.5C 279.5,327.833 279.5,330.167 279.5,332.5C 295.686,333.791 312.02,333.624 328.5,332C 333.719,329.579 333.719,327.079 328.5,324.5C 326.748,322.754 325.415,320.754 324.5,318.5 Z"/></g>
<g><path style="opacity:1" fill="#fac3d6" d="M 336.5,331.5 C 338.176,332.183 338.843,333.517 338.5,335.5C 344.654,335.9 350.654,335.233 356.5,333.5C 356.389,334.117 356.056,334.617 355.5,335C 347.473,337.841 339.473,338.007 331.5,335.5C 333.586,334.511 335.253,333.178 336.5,331.5 Z"/></g>
<g><path style="opacity:1" fill="#f53747" d="M 190.5,338.5 C 222.337,339.312 254.003,340.812 285.5,343C 290.876,343.785 296.209,344.785 301.5,346C 312.794,350.53 324.294,354.363 336,357.5C 341.026,357.432 346.026,357.432 351,357.5C 363.206,353.542 375.373,349.375 387.5,345C 399.602,342.689 411.602,341.523 423.5,341.5C 423.34,343.153 422.674,344.486 421.5,345.5C 421.649,344.448 421.483,343.448 421,342.5C 412.239,343.857 403.405,345.024 394.5,346C 381.026,349.743 368.859,355.909 358,364.5C 357.439,363.978 356.772,363.645 356,363.5C 353.995,364.783 351.828,365.783 349.5,366.5C 345.88,366.214 342.214,366.214 338.5,366.5C 335.711,365.352 333.044,364.019 330.5,362.5C 329.914,362.709 329.414,363.043 329,363.5C 316.369,354.058 302.203,347.892 286.5,345C 258.207,344.379 230.207,342.546 202.5,339.5C 201.914,339.709 201.414,340.043 201,340.5C 197.397,339.865 193.897,339.198 190.5,338.5 Z"/></g>
<g><path style="opacity:1" fill="#f74373" d="M 251.5,330.5 C 251.5,331.833 251.5,333.167 251.5,334.5C 268.982,335.893 286.649,336.726 304.5,337C 311.823,337.777 319.157,338.444 326.5,339C 331.167,340.875 336,342.042 341,342.5C 348.217,341.237 355.384,339.737 362.5,338C 366.821,337.501 371.154,337.334 375.5,337.5C 366.86,338.036 358.86,340.703 351.5,345.5C 344.158,346.667 336.825,346.501 329.5,345C 323.239,342.802 316.905,340.802 310.5,339C 284.683,337.957 259.017,337.123 233.5,336.5C 234.301,334.958 234.634,333.292 234.5,331.5C 234.833,331.5 235.167,331.5 235.5,331.5C 240.056,333.442 245.056,334.108 250.5,333.5C 250.263,332.209 250.596,331.209 251.5,330.5 Z"/></g>
<g><path style="opacity:1" fill="#f880a9" d="M 335.5,330.5 C 336.167,330.5 336.5,330.833 336.5,331.5C 335.253,333.178 333.586,334.511 331.5,335.5C 339.473,338.007 347.473,337.841 355.5,335C 356.056,334.617 356.389,334.117 356.5,333.5C 356.842,332.662 357.508,332.328 358.5,332.5C 363.067,334.285 368.067,335.118 373.5,335C 372.5,335.333 371.5,335.667 370.5,336C 362.67,336.031 355.003,337.031 347.5,339C 341.606,340.037 335.939,339.371 330.5,337C 323.726,336.922 317.059,336.255 310.5,335C 316.833,334.667 323.167,334.333 329.5,334C 332.152,333.647 334.152,332.48 335.5,330.5 Z"/></g>
<g><path style="opacity:1" fill="#f63e5f" d="M 138.5,336.5 C 170.167,336.5 201.833,336.5 233.5,336.5C 259.017,337.123 284.683,337.957 310.5,339C 316.905,340.802 323.239,342.802 329.5,345C 336.825,346.501 344.158,346.667 351.5,345.5C 358.86,340.703 366.86,338.036 375.5,337.5C 380.833,337.5 386.167,337.5 391.5,337.5C 403.012,337.172 414.346,337.505 425.5,338.5C 425.5,339.167 425.5,339.833 425.5,340.5C 425.167,340.5 424.833,340.5 424.5,340.5C 422.952,339.206 420.952,338.539 418.5,338.5C 408.842,339.159 399.176,339.659 389.5,340C 379.421,342.687 369.421,345.687 359.5,349C 351.834,351.032 344.167,351.866 336.5,351.5C 322.179,348.225 308.179,344.058 294.5,339C 256.833,338.454 219.166,337.954 181.5,337.5C 172.833,337.5 164.167,337.5 155.5,337.5C 149.642,337.822 143.975,337.489 138.5,336.5 Z"/></g>
<g><path style="opacity:1" fill="#f5394f" d="M 181.5,337.5 C 219.166,337.954 256.833,338.454 294.5,339C 308.179,344.058 322.179,348.225 336.5,351.5C 344.167,351.866 351.834,351.032 359.5,349C 369.421,345.687 379.421,342.687 389.5,340C 399.176,339.659 408.842,339.159 418.5,338.5C 420.952,338.539 422.952,339.206 424.5,340.5C 424.5,341.167 424.167,341.5 423.5,341.5C 411.602,341.523 399.602,342.689 387.5,345C 375.373,349.375 363.206,353.542 351,357.5C 346.026,357.432 341.026,357.432 336,357.5C 324.294,354.363 312.794,350.53 301.5,346C 296.209,344.785 290.876,343.785 285.5,343C 254.003,340.812 222.337,339.312 190.5,338.5C 187.287,338.81 184.287,338.477 181.5,337.5 Z"/></g>
<g><path style="opacity:0.459" fill="#fb9a9d" d="M 424.5,340.5 C 424.833,340.5 425.167,340.5 425.5,340.5C 424.78,344.945 422.78,348.612 419.5,351.5C 419.5,350.833 419.5,350.167 419.5,349.5C 420.674,348.486 421.34,347.153 421.5,345.5C 422.674,344.486 423.34,343.153 423.5,341.5C 424.167,341.5 424.5,341.167 424.5,340.5 Z"/></g>
<g><path style="opacity:0.671" fill="#fda7a5" d="M 391.5,389.5 C 391.263,390.791 391.596,391.791 392.5,392.5C 392.158,393.338 391.492,393.672 390.5,393.5C 385.167,396.833 380.833,401.167 377.5,406.5C 376.041,406.433 374.708,406.766 373.5,407.5C 379.119,401.215 385.119,395.215 391.5,389.5 Z"/></g>
<g><path style="opacity:0.027" fill="#ffeeed" d="M 390.5,393.5 C 386.876,398.491 382.543,402.825 377.5,406.5C 380.833,401.167 385.167,396.833 390.5,393.5 Z"/></g>
<g><path style="opacity:0.659" fill="#fb9998" d="M 373.5,407.5 C 371.36,410.061 369.027,412.395 366.5,414.5C 365.833,414.5 365.167,414.5 364.5,414.5C 366.949,411.444 369.949,409.111 373.5,407.5 Z"/></g>
<g><path style="opacity:0.051" fill="#ffe7e7" d="M 377.5,406.5 C 375.057,409.106 372.39,411.606 369.5,414C 368.552,414.483 367.552,414.649 366.5,414.5C 369.027,412.395 371.36,410.061 373.5,407.5C 374.708,406.766 376.041,406.433 377.5,406.5 Z"/></g>
<g><path style="opacity:0.28" fill="#fedbda" d="M 20.5,281.5 C 22.2545,291.982 24.9212,302.315 28.5,312.5C 29.3891,316.431 30.7225,320.098 32.5,323.5C 59.0375,385.213 103.704,427.38 166.5,450C 178.42,453.041 190.42,455.541 202.5,457.5C 203.952,458.302 205.618,458.802 207.5,459C 221.5,459.667 235.5,459.667 249.5,459C 255.331,458.29 260.998,457.457 266.5,456.5C 267.5,456.5 268.5,456.5 269.5,456.5C 274.283,455.491 278.95,454.491 283.5,453.5C 289.256,451.285 295.256,449.619 301.5,448.5C 306.212,448.308 310.212,446.641 313.5,443.5C 314.833,443.167 316.167,442.833 317.5,442.5C 320.772,441.242 324.106,440.075 327.5,439C 331.914,436.256 336.248,433.423 340.5,430.5C 344.328,427.082 348.661,424.416 353.5,422.5C 356.891,421.471 359.557,419.471 361.5,416.5C 362.5,415.833 363.5,415.167 364.5,414.5C 365.167,414.5 365.833,414.5 366.5,414.5C 365.972,415.721 365.305,416.887 364.5,418C 299.213,464.664 228.546,474.331 152.5,447C 89.7524,420.58 47.2524,375.08 25,310.5C 22.5332,302.634 20.6998,294.634 19.5,286.5C 20.4511,285.081 20.7845,283.415 20.5,281.5 Z"/></g>
<g><path style="opacity:0.6" fill="#fba3a2" d="M 313.5,443.5 C 310.212,446.641 306.212,448.308 301.5,448.5C 302.058,447.21 303.058,446.377 304.5,446C 307.546,445.261 310.546,444.428 313.5,443.5 Z"/></g>
<g><path style="opacity:0.608" fill="#fb8683" d="M 340.5,430.5 C 336.248,433.423 331.914,436.256 327.5,439C 324.106,440.075 320.772,441.242 317.5,442.5C 320.728,440.202 324.061,437.869 327.5,435.5C 331.955,434.104 336.288,432.437 340.5,430.5 Z"/></g>
<g><path style="opacity:0.725" fill="#fa8c8b" d="M 361.5,416.5 C 359.557,419.471 356.891,421.471 353.5,422.5C 355.8,420.016 358.467,418.016 361.5,416.5 Z"/></g>
<g><path style="opacity:0.843" fill="#f98e8d" d="M 283.5,453.5 C 278.95,454.491 274.283,455.491 269.5,456.5C 273.738,454.044 278.404,453.044 283.5,453.5 Z"/></g>
<g><path style="opacity:0.938" fill="#fa9291" d="M 266.5,456.5 C 260.998,457.457 255.331,458.29 249.5,459C 235.5,459.667 221.5,459.667 207.5,459C 205.618,458.802 203.952,458.302 202.5,457.5C 223.862,458.931 245.195,458.597 266.5,456.5 Z"/></g>
</svg>
