<svg xmlns="http://www.w3.org/2000/svg" width="2400" height="488" style="shape-rendering:geometricPrecision;text-rendering:geometricPrecision;image-rendering:optimizeQuality;fill-rule:evenodd;clip-rule:evenodd"><path style="opacity:1" fill="#f53939" d="M256.5 28.5c.111.617.444 1.117 1 1.5 6.35.788 12.683 1.622 19 2.5a87.854 87.854 0 0 1 18 4c.111.617.444 1.117 1 1.5 3.327.61 6.661 1.11 10 1.5 2.575 2.075 5.575 3.409 9 4 2.692 2.68 6.025 4.014 10 4 54.743 26.925 92.576 69.259 113.5 127a543.12 543.12 0 0 1 3.5 14c.27 4.95 1.27 9.617 3 14 1.994 7.732 3.16 15.732 3.5 24 .5 14.007.333 28.007-.5 42-3.06 9.672-5.06 19.672-6 30a598.482 598.482 0 0 1-7.5 23c-.941 2.227-2.108 4.227-3.5 6-.65.304-1.317.637-2 1a880.215 880.215 0 0 0-31-3.5c-8.941-2.227-17.607-5.894-26-11-1.304-.804-1.971-1.971-2-3.5a53.043 53.043 0 0 1 4-11.5c-1.151-4.822-1.151-9.655 0-14.5a52.53 52.53 0 0 1 2-14v-2c3.55-9.544 5.216-19.544 5-30-9.182-.327-18.182.007-27 1v4a453.2 453.2 0 0 0-4.5 18 32.462 32.462 0 0 0-.5 8 766.541 766.541 0 0 0-4 24c-1.175.219-2.175-.114-3-1a267.738 267.738 0 0 0-27-28c-2.936-4.605-6.602-8.605-11-12a2.428 2.428 0 0 0-.5-2 97.46 97.46 0 0 0-12.5-11c-8.269-3.756-15.269-2.09-21 5-2.907 1.815-4.241 4.481-4 8a350.579 350.579 0 0 0-4 23c-2.062 6.726-3.396 13.726-4 21-1.422 7.95-2.756 15.95-4 24-1.285 3.089-1.951 6.422-2 10-.904.709-1.237 1.709-1 3-5.444.608-10.444-.058-15-2a861.355 861.355 0 0 0 2-22v-2c.768-.763 1.268-1.763 1.5-3a289.202 289.202 0 0 1 6-46c.499-5.657.666-11.324.5-17 1.389-4.769 2.056-9.769 2-15v-5c.961-1.765 1.295-3.765 1-6-27.335-.167-54.669 0-82 .5-.752.671-1.086 1.504-1 2.5a65.151 65.151 0 0 1-6.5 8 23.423 23.423 0 0 0-2.5 6c-2.087 1.085-3.42 2.751-4 5a168.878 168.878 0 0 0-12 18c-1.604.787-2.271 2.12-2 4h65a1033.012 1033.012 0 0 0-3 26.5 590.466 590.466 0 0 1-58-.5c-11.085-4.756-17.751-13.089-20-25-.855-13.317.479-26.317 4-39-.098-2.053.569-3.72 2-5 2.403-1.77 4.07-4.103 5-7 3.229-6.126 8.229-10.126 15-12a20.69 20.69 0 0 1 5-1c25.643-.797 51.31-1.297 77-1.5.906-1.699 1.239-3.533 1-5.5a64.322 64.322 0 0 1 6-9c1.826-1.647 3.16-3.647 4-6a63.735 63.735 0 0 1 11.5-18c.006-2.764 1.172-4.764 3.5-6 1.762-.762 2.762-2.096 3-4 .667 0 1-.333 1-1 3.768-1.287 7.435-1.287 11 0-.326 8.849.007 17.516 1 26 3.847 2.753 8.181 4.753 13 6 2.735 2.701 6.069 4.368 10 5a28.51 28.51 0 0 1 9 4.5 396.59 396.59 0 0 0-22 10.5c-4.011.544-7.344 2.211-10 5-.994 10.153-1.328 20.486-1 31 1.291.237 2.291-.096 3-1 3.425-.591 6.425-1.925 9-4a57.692 57.692 0 0 0 8-4h3v4c23.494.998 47.161 1.331 71 1 .325-7.187-.009-14.187-1-21 0-.667-.333-1-1-1a378.962 378.962 0 0 1-39-3c2.185-.204 4.185-.87 6-2 4.184-.092 7.517-1.759 10-5a66.04 66.04 0 0 0 12-5c2.467-.255 4.467-1.255 6-3 1.068-.934 2.401-1.268 4-1v-3a52.174 52.174 0 0 1-9-3c-2.735-2.701-6.069-4.368-10-5a65.717 65.717 0 0 1-18-8c-.111-.617-.444-1.117-1-1.5 17.696.156 35.029-.678 52-2.5.324-6.854-.009-13.521-1-20v-1a35911.1 35911.1 0 0 0-41-2 12.403 12.403 0 0 0-4-2.5 1084.526 1084.526 0 0 1-43.5-7.5c-2.33 1.532-4.33 1.198-6-1-16.058.783-31.891-.051-47.5-2.5a81.778 81.778 0 0 0-10-3.5c-2.513-1.828-4.179-4.161-5-7-2.367-.664-4.367-1.997-6-4-1.476-4.694-4.476-7.694-9-9v-3c-3.491.017-6.158-1.483-8-4.5a87.708 87.708 0 0 1-16-4.5c-3.333 1.333-6.667 1.333-10 0a526.047 526.047 0 0 1-17.5 5c-1.946 2.462-4.446 3.796-7.5 4-1.21 3.55-3.543 6.216-7 8-3.18 4.207-6.18 8.54-9 13a214.565 214.565 0 0 1-13 5.5 743.542 743.542 0 0 1-50.5 2.5c-5.216-.006-10.049-.673-14.5-2-.577-3.05.59-5.05 3.5-6l4-8c3.098-2.428 5.431-5.428 7-9a30.818 30.818 0 0 0 4.5-3 85.817 85.817 0 0 0 10-12c3.13-3.63 6.463-7.13 10-10.5a89.718 89.718 0 0 1 15-11 13.923 13.923 0 0 0 3-4c5.079-1.403 9.412-4.07 13-8a418.221 418.221 0 0 1 35-16.5c3.895-.962 7.561-2.296 11-4 3.886-.99 7.886-1.99 12-3 4.485-.84 8.819-1.84 13-3 7.672-2.423 15.672-3.59 24-3.5a371.29 371.29 0 0 1 41 .5Z"/><path style="opacity:.976" fill="#f63737" d="M2148.5 55.5c28.49-1.678 41.66 11.655 39.5 40-5.99 18.616-18.82 26.783-38.5 24.5-16.74-4.074-25.4-14.741-26-32 1.03-16.6 9.36-27.434 25-32.5Z"/><path style="opacity:.059" fill="#fedddd" d="M392.5 392.5c-.904-.709-1.237-1.709-1-3a307.798 307.798 0 0 0 28-38c3.28-2.888 5.28-6.555 6-11v-2c1.431-1.28 2.098-2.947 2-5 1.762-.762 2.762-2.096 3-4v-2c1.392-1.773 2.559-3.773 3.5-6a598.482 598.482 0 0 0 7.5-23c.617-.111 1.117-.444 1.5-1a360.595 360.595 0 0 0 4.5-29c.833-13.993 1-27.993.5-42-.34-8.268-1.506-16.268-3.5-24 .235-5.046-.765-9.713-3-14a543.12 543.12 0 0 0-3.5-14c-20.924-57.741-58.757-100.075-113.5-127-3.018-1.9-6.351-3.233-10-4-3.425-.591-6.425-1.925-9-4-3.354-1.758-7.021-2.758-11-3a87.854 87.854 0 0 0-18-4c-.418-.722-1.084-1.222-2-1.5a168.124 168.124 0 0 0-18-2.5 371.29 371.29 0 0 0-41-.5c-8.328-.09-16.328 1.077-24 3.5-4.761-.376-9.095.624-13 3-4.114 1.01-8.114 2.01-12 3-4.28.199-7.947 1.532-11 4a418.221 418.221 0 0 0-35 16.5c-3.588 3.93-7.921 6.597-13 8a13.923 13.923 0 0 1-3 4 89.718 89.718 0 0 0-15 11c-3.537 3.37-6.87 6.87-10 10.5-4.457 3.119-7.79 7.119-10 12a30.818 30.818 0 0 1-4.5 3c-1.569 3.572-3.902 6.572-7 9l-4 8c-2.91.95-4.077 2.95-3.5 6-2.227.901-3.227 2.567-3 5-.667 0-1 .333-1 1h-1c-1.773 2.68-3.107 5.68-4 9v1c-4.104 3.659-6.438 8.326-7 14a232.974 232.974 0 0 0-15 52h-1a185.59 185.59 0 0 0 1-11C33.857 131.938 71.857 81.105 133.5 48c48.532-23.565 99.199-29.232 152-17C357.579 51.107 408.079 95.607 437 164.5a146.9 146.9 0 0 0 8 26c16.51 76.641-.99 143.975-52.5 202Z"/><path style="opacity:1" fill="#f64161" d="M281.5 138.5c8.468 1.336 17.135 2.169 26 2.5 2.215.388 3.548 1.388 4 3 5.991.499 11.991.666 18 .5h46v1h-104c-3.565-1.287-7.232-1.287-11 0-.061-2.55-1.394-4.05-4-4.5-17.336-.98-34.669-1.98-52-3a100.851 100.851 0 0 1-17-6c-9.088-2.841-18.088-3.174-27-1-7.3 2.657-14.633 5.323-22 8a1963.036 1963.036 0 0 1-93 1c-.913-1.414-.913-2.914 0-4.5h1v2c3.986.666 8.153.999 12.5 1a4063.54 4063.54 0 0 1 65.5-1.5 79.066 79.066 0 0 0 10-2c12.404-6.514 25.404-10.014 39-10.5 14.314 1.489 27.981 5.322 41 11.5a1206.07 1206.07 0 0 0 67 2.5Z"/><path style="opacity:1" fill="#f5394f" d="M281.5 138.5a1206.07 1206.07 0 0 1-67-2.5c-13.019-6.178-26.686-10.011-41-11.5-13.596.486-26.596 3.986-39 10.5a79.066 79.066 0 0 1-10 2 4063.54 4063.54 0 0 0-65.5 1.5c-4.347-.001-8.514-.334-12.5-1 21.91-.595 43.744-1.595 65.5-3 13.825-1.271 26.992-5.438 39.5-12.5 7.229-1.845 14.229-3.345 21-4.5 13.669 1.502 26.503 5.502 38.5 12a115.604 115.604 0 0 0 18.5 4.5c17.718 2.086 35.051 3.586 52 4.5Z"/><path style="opacity:1" fill="#f53747" d="M329.5 144.5a162.597 162.597 0 0 1-18-.5c-.452-1.612-1.785-2.612-4-3-8.865-.331-17.532-1.164-26-2.5-16.949-.914-34.282-2.414-52-4.5a115.604 115.604 0 0 1-18.5-4.5c-11.997-6.498-24.831-10.498-38.5-12-6.771 1.155-13.771 2.655-21 4.5-12.508 7.062-25.675 11.229-39.5 12.5a1755.964 1755.964 0 0 1-65.5 3v-2c0-.667.333-1 1-1 .12 1.086.787 1.753 2 2a425.288 425.288 0 0 1 58.5-3 61.569 61.569 0 0 0 12-3l1 1c13.863-4.884 26.696-11.55 38.5-20a189.553 189.553 0 0 0 14-3 22.679 22.679 0 0 1 9.5 2 3.943 3.943 0 0 0 2-1 5905.031 5905.031 0 0 1 24.5 15.5 66.251 66.251 0 0 0 17 6 2011.065 2011.065 0 0 0 96 9c2.789.241 5.456.908 8 2-.752.671-1.086 1.504-1 2.5Z"/><path style="opacity:1" fill="#f53841" d="M375.5 144.5h-46c-.086-.996.248-1.829 1-2.5a25.777 25.777 0 0 0-8-2 2011.065 2011.065 0 0 1-96-9 66.251 66.251 0 0 1-17-6 5905.031 5905.031 0 0 0-24.5-15.5 3.943 3.943 0 0 1-2 1 22.679 22.679 0 0 0-9.5-2 189.553 189.553 0 0 1-14 3c-11.804 8.45-24.637 15.116-38.5 20l-1-1a61.569 61.569 0 0 1-12 3 425.288 425.288 0 0 0-58.5 3c-1.213-.247-1.88-.914-2-2-.227-2.433.773-4.099 3-5 4.451 1.327 9.284 1.994 14.5 2a743.542 743.542 0 0 0 50.5-2.5 214.565 214.565 0 0 0 13-5.5c2.82-4.46 5.82-8.793 9-13 3.457-1.784 5.79-4.45 7-8 3.054-.204 5.554-1.538 7.5-4a526.047 526.047 0 0 0 17.5-5c3.333 1.333 6.667 1.333 10 0a87.708 87.708 0 0 0 16 4.5c1.842 3.017 4.509 4.517 8 4.5v3c4.524 1.306 7.524 4.306 9 9 1.633 2.003 3.633 3.336 6 4 .821 2.839 2.487 5.172 5 7a81.778 81.778 0 0 1 10 3.5c15.609 2.449 31.442 3.283 47.5 2.5 1.67 2.198 3.67 2.532 6 1a1084.526 1084.526 0 0 0 43.5 7.5 12.403 12.403 0 0 1 4 2.5 35911.1 35911.1 0 0 1 41 2Z"/><path style="opacity:.988" fill="#f97270" d="M79.5 91.5a85.817 85.817 0 0 1-10 12c2.21-4.881 5.543-8.881 10-12Z"/><path style="opacity:.945" fill="#f97776" d="M314.5 43.5c3.649.767 6.982 2.1 10 4-3.975.014-7.308-1.32-10-4Z"/><path style="opacity:.761" fill="#fb9a99" d="M166.5 37.5c-3.439 1.704-7.105 3.038-11 4 3.053-2.468 6.72-3.801 11-4Z"/><path style="opacity:.878" fill="#fa7573" d="M294.5 36.5c3.979.242 7.646 1.242 11 3-3.339-.39-6.673-.89-10-1.5-.556-.383-.889-.883-1-1.5Z"/><path style="opacity:.914" fill="#f97574" d="M191.5 31.5a155.801 155.801 0 0 1-13 3c3.905-2.376 8.239-3.376 13-3Z"/><path style="opacity:.976" fill="#f86866" d="M256.5 28.5c6.034.507 12.034 1.34 18 2.5.916.278 1.582.778 2 1.5-6.317-.878-12.65-1.712-19-2.5-.556-.383-.889-.883-1-1.5Z"/><path style="opacity:1" fill="#f74373" d="M260.5 145.5c0 .667-.333 1-1 1v-3h-37c3.812-.824 7.812-1.324 12-1.5-21.2-.475-42.2-2.642-63-6.5a127.387 127.387 0 0 0-15 4.5c-18.066.04-36.066.706-54 2a671.459 671.459 0 0 0 46 2c.556.383.889.883 1 1.5l-2 2a51.569 51.569 0 0 0-7 1c-.73-1.545-2.063-2.378-4-2.5a1699.997 1699.997 0 0 0-95-1.5c.893-3.32 2.227-6.32 4-9-.913 1.586-.913 3.086 0 4.5 31.005.401 62.005.068 93-1 7.367-2.677 14.7-5.343 22-8 8.912-2.174 17.912-1.841 27 1a100.851 100.851 0 0 0 17 6c17.331 1.02 34.664 2.02 52 3 2.606.45 3.939 1.95 4 4.5Z"/><path style="opacity:1" fill="#f75d91" d="M222.5 143.5c-8.673.166-17.34 0-26-.5l16-1a273.468 273.468 0 0 0-33-1.5c-.12-1.086-.787-1.753-2-2-5.734-1.633-11.067-.8-16 2.5-37.333.667-37.333 1.333 0 2-.556.383-.889.883-1 1.5-3.654.442-7.321.776-11 1-.111-.617-.444-1.117-1-1.5a671.459 671.459 0 0 1-46-2 773.933 773.933 0 0 1 54-2 127.387 127.387 0 0 1 15-4.5c20.8 3.858 41.8 6.025 63 6.5-4.188.176-8.188.676-12 1.5Z"/><path style="opacity:1" fill="#f898b9" d="M179.5 140.5c-5.942-1.801-11.608-1.301-17 1.5l3 1c-1.405 1.269-3.071 1.769-5 1.5.111-.617.444-1.117 1-1.5-37.333-.667-37.333-1.333 0-2 4.933-3.3 10.266-4.133 16-2.5 1.213.247 1.88.914 2 2Z"/><path style="opacity:1" fill="#f788ab" d="M179.5 140.5c11.03-.165 22.03.335 33 1.5l-16 1c8.66.5 17.327.666 26 .5h37v3c-.238 1.904-1.238 3.238-3 4a5.727 5.727 0 0 1 1-3c.904-.709 1.237-1.709 1-3-26.335.167-52.669 0-79-.5l-1-1 4-1c-1.237-.232-2.237-.732-3-1.5Z"/><path style="opacity:.994" fill="#f63737" d="M602.5 143.5c26.411-2.538 48.578 5.796 66.5 25 8.527 11.572 13.527 24.572 15 39 .5 44.332.667 88.665.5 133h-57c.167-39.668 0-79.335-.5-119-.955-17.457-10.122-26.124-27.5-26-18.376.764-29.543 10.098-33.5 28a2399.096 2399.096 0 0 0-1.5 117h-56a26978.58 26978.58 0 0 1 0-190h51a98.432 98.432 0 0 0 .5 14c11.639-12.237 25.806-19.237 42.5-21Z"/><path style="opacity:.984" fill="#f63737" d="M1759.5 143.5c19.32-1.253 37.98 1.58 56 8.5 25.56 14.598 38.73 36.764 39.5 66.5.5 40.665.67 81.332.5 122h-50c.17-4.346 0-8.679-.5-13-22.1 19.818-47.26 24.651-75.5 14.5-26.77-12.005-40.1-32.839-40-62.5.5-28.872 14.17-48.372 41-58.5 24.98-6.885 48.31-3.385 70 10.5.7-27.64-12.97-41.64-41-42-16.37.641-31.87 4.641-46.5 12a3.947 3.947 0 0 1-2-1 886.04 886.04 0 0 0-16.5-36c13.9-8.471 28.9-14.304 45-17.5a616.574 616.574 0 0 0 20-3.5Zm9 116c9.58-.178 18.58 1.989 27 6.5 9.56 9.965 9.23 19.632-1 29-11.46 5.677-23.46 7.01-36 4-8.5-3.676-12.83-10.176-13-19.5-.08-8.692 3.92-14.525 12-17.5 3.81-.795 7.48-1.629 11-2.5Z"/><path style="opacity:.993" fill="#f63737" d="M1996.5 143.5c26.98-2.58 49.48 6.086 67.5 26 10.24 15.396 15.24 32.396 15 51 .5 39.999.67 79.999.5 120h-57c.43-40.022-.07-80.022-1.5-120-2.88-20.039-14.38-28.206-34.5-24.5-12.99 2.995-21.49 10.828-25.5 23.5a368.49 368.49 0 0 0-2.5 19c.6 33.365.6 67.365 0 102h-56v-190h52c-.17 4.346 0 8.679.5 13 11.53-11.559 25.36-18.226 41.5-20Z"/><path style="opacity:.983" fill="#f63737" d="M2293.5 143.5c20.93-1.553 40.93 1.947 60 10.5 23.45 15.723 35.28 37.89 35.5 66.5.5 39.999.67 79.999.5 120h-50c.17-4.346 0-8.679-.5-13-16.62 16.119-36.45 22.286-59.5 18.5-24.34-3.347-41.5-16.18-51.5-38.5-5.91-18.024-5.91-36.024 0-54 8.97-18.961 23.8-30.461 44.5-34.5 22.42-4.084 43.08.083 62 12.5.7-27.635-12.96-41.635-41-42-16.37.635-31.87 4.635-46.5 12a3.947 3.947 0 0 1-2-1 1677.714 1677.714 0 0 1-16.5-35.5 9.527 9.527 0 0 1 3-3c19.77-9.603 40.43-15.77 62-18.5Zm9 116c9.58-.178 18.58 1.989 27 6.5 9.63 9.984 9.3 19.65-1 29-11.46 5.677-23.46 7.01-36 4-8.79-3.246-13.13-9.58-13-19-.67-7.67 2.33-13.336 9-17 4.72-1.494 9.39-2.661 14-3.5Z"/><path style="opacity:1" fill="#fad2df" d="M179.5 140.5c.763.768 1.763 1.268 3 1.5l-4 1 1 1c26.331.5 52.665.667 79 .5.237 1.291-.096 2.291-1 3-16.32-1.333-32.986-2-50-2l-50 .5c-3.327.61-6.661 1.11-10 1.5l2-2c3.679-.224 7.346-.558 11-1 1.929.269 3.595-.231 5-1.5l-3-1c5.392-2.801 11.058-3.301 17-1.5Z"/><path style="opacity:.984" fill="#f63737" d="M793.5 144.5c51.933-5.31 84.767 17.023 98.5 67 3.492 17.089 3.658 34.089.5 51h-119c3.632 23.797 17.465 36.797 41.5 39 17.534-.435 32.201-7.102 44-20l28.5 34.5c-25.525 25.174-56.192 35.174-92 30-36.423-5.294-60.256-25.461-71.5-60.5-8.059-29.647-7.059-58.98 3-88 12.297-30.137 34.463-47.804 66.5-53Zm13 45c23.313.671 35.98 12.671 38 36-23.676.333-47.343 0-71-1 3.248-19.241 14.248-30.908 33-35Z"/><path style="opacity:.985" fill="#f63737" d="M1257.5 144.5c28.27-2.267 54.27 4.233 78 19.5.56.725.89 1.558 1 2.5a498.313 498.313 0 0 1-18 40c-17.51-11.46-36.51-15.96-57-13.5-8.72 3.609-10.05 8.942-4 16a780.9 780.9 0 0 0 48 22c34.11 17.3 44.94 44.134 32.5 80.5-12.51 20.796-31.01 32.296-55.5 34.5-31.6 3.516-60.6-3.484-87-21a4.942 4.942 0 0 1-1-2.5 381.712 381.712 0 0 1 19-41c13.75 8.753 28.75 14.253 45 16.5 6 .667 12 .667 18 0 8.67-2.174 12.17-7.674 10.5-16.5-3.6-6.229-8.77-10.729-15.5-13.5-19.95-6.804-38.28-16.471-55-29-13.57-13.368-18.73-29.535-15.5-48.5 3.06-19.066 13.56-32.233 31.5-39.5 8.26-2.981 16.59-5.147 25-6.5Z"/><path style="opacity:.99" fill="#f63737" d="M1472.5 144.5c22.76-2.939 42.09 3.727 58 20 18.63-17.331 40.63-23.831 66-19.5 35.27 5.941 54.77 26.775 58.5 62.5 1.43 44.315 1.93 88.648 1.5 133h-57c.46-42.363-.04-84.697-1.5-127-1.65-11.818-8.49-17.818-20.5-18-16.01-.484-25.18 7.183-27.5 23a2557.214 2557.214 0 0 0-1.5 122h-57c.17-40.668 0-81.335-.5-122-3.98-18.084-15.14-25.251-33.5-21.5-10.26 4.307-15.76 12.141-16.5 23.5a2526.433 2526.433 0 0 0-1.5 120h-56c-.39-62.139-.39-125.473 0-190h51c-.17 5.011 0 10.011.5 15 5.91-7.552 13.41-13.052 22.5-16.5a273.57 273.57 0 0 1 15-4.5Z"/><path style="opacity:1" fill="#f53b5a" d="M41.5 145.5v-1c31.686-.385 63.353.115 95 1.5 1.937.122 3.27.955 4 2.5a87.241 87.241 0 0 1-11 6c.305-3.701-1.362-6.034-5-7a1945.201 1945.201 0 0 0-83-2Z"/><path style="opacity:1" fill="#fefdfd" d="M257.5 147.5a5.727 5.727 0 0 0-1 3c-2.328 1.236-3.494 3.236-3.5 6a63.735 63.735 0 0 0-11.5 18c-2.322 1.302-3.655 3.302-4 6a64.322 64.322 0 0 0-6 9c-.901.79-1.568 1.79-2 3-24.336-.167-48.669 0-73 .5-2.948 1.237-5.615 2.737-8 4.5-6.771 1.874-11.771 5.874-15 12-2.764 1.448-4.431 3.781-5 7-1.431 1.28-2.098 2.947-2 5-.958.453-1.792 1.119-2.5 2-3.934 12.321-4.434 24.655-1.5 37 2.249 11.911 8.915 20.244 20 25 .763.768 1.763 1.268 3 1.5 18.997.5 37.997.667 57 .5.706-9.996 1.372-19.996 2-30h-64v-2a168.878 168.878 0 0 1 12-18c2.087-1.085 3.42-2.751 4-5a23.423 23.423 0 0 1 2.5-6 65.151 65.151 0 0 0 6.5-8l2-1h79l-1 16v8a305.962 305.962 0 0 0-2.5 11 2132.815 2132.815 0 0 0-5.5 55v2c-.934 3.156-1.601 6.489-2 10-.768.763-1.268 1.763-1.5 3a72.367 72.367 0 0 0-.5 12h-99c-14.804-2.991-26.637-10.658-35.5-23-3.828-5.04-6.994-10.374-9.5-16 .24-2.398-.426-4.398-2-6-.667 0-1-.333-1-1a127.43 127.43 0 0 0-4-17v-2a354.564 354.564 0 0 1-1-30c2.114-27.202 12.114-50.869 30-71a143.738 143.738 0 0 1 18-14 87.241 87.241 0 0 0 11-6 51.569 51.569 0 0 1 7-1c3.339-.39 6.673-.89 10-1.5l50-.5c17.014 0 33.68.667 50 2Z"/><path style="opacity:1" fill="#f7b8b9" d="M271.5 145.5h104c.991 6.479 1.324 13.146 1 20h-1v-19h-103v25c-.993-8.484-1.326-17.151-1-26Z"/><path style="opacity:1" fill="#fefcfc" d="M375.5 165.5c-18.679-.333-37.345 0-56 1 .505 1.419 1.505 2.085 3 2 .891.61 1.891.943 3 1a65.717 65.717 0 0 0 18 8c2.735 2.701 6.069 4.368 10 5a52.174 52.174 0 0 0 9 3v3c-1.599-.268-2.932.066-4 1-2.467.255-4.467 1.255-6 3a66.04 66.04 0 0 1-12 5c-4.163.191-7.496 1.857-10 5-1.815 1.13-3.815 1.796-6 2-.992-.172-1.658.162-2 1-1.495-.085-2.495.581-3 2a484.862 484.862 0 0 0 44 1v19h-68v-4c-1.599-.268-2.932.066-4 1a57.692 57.692 0 0 1-8 4c-3.184 1.143-6.517 1.809-10 2v-28c3.448-.89 6.448-2.557 9-5a396.59 396.59 0 0 1 22-10.5 28.51 28.51 0 0 0-9-4.5c-2.735-2.701-6.069-4.368-10-5-4.819-1.247-9.153-3.247-13-6v-25h103v19Z"/><path style="opacity:1" fill="#f5393f" d="M41.5 145.5c27.68.076 55.347.743 83 2 3.638.966 5.305 3.299 5 7a143.738 143.738 0 0 0-18 14v-7c-10.36-3.338-21.026-5.004-32-5-11.7.546-23.2.546-34.5 0-4.012-.144-7.512.856-10.5 3 .562-5.674 2.896-10.341 7-14Z"/><path style="opacity:.987" fill="#f63737" d="M904.5 151.5a813 813 0 0 1 57-1 4532.467 4532.467 0 0 0 29.5 111 4025.463 4025.463 0 0 0 35.5-107c12.58-.322 25.08.011 37.5 1 10.67 35.333 21.33 70.667 32 106 9.66-36.983 19.16-73.983 28.5-111h56c-17.67 63.333-35.33 126.667-53 190-17.01.333-34.01-.001-51-1-10.4-31.703-20.9-63.37-31.5-95-12 31.845-23.5 63.845-34.5 96a670.389 670.389 0 0 1-51.5-1 20792.063 20792.063 0 0 0-54.5-188Z"/><path style="opacity:.981" fill="#f63737" d="M2127.5 150.5h57v190h-57v-190Z"/><path style="opacity:1" fill="#f53838" d="M111.5 168.5c-17.886 20.131-27.886 43.798-30 71-.665 3.651-.999 7.485-1 11.5-.13 6.399.537 12.566 2 18.5v2c.234 6.045 1.567 11.712 4 17 0 .667.333 1 1 1-.24 2.398.426 4.398 2 6 2.506 5.626 5.672 10.96 9.5 16 8.863 12.342 20.696 20.009 35.5 23l4 2c5.475.989 11.142 1.322 17 1a600.458 600.458 0 0 0 73 7.5c1.824 2.081 3.491 1.915 5-.5a28.931 28.931 0 0 0 4 1.5c12.2.196 24.366.696 36.5 1.5 10.358-.866 19.858 1.801 28.5 8 1.521 4.271 4.521 6.937 9 8v4a4.934 4.934 0 0 1 3 .5c6.417 5.603 13.751 9.436 22 11.5 6.518.302 13.185-.031 20-1 2.888-2.195 6.221-3.528 10-4a11.38 11.38 0 0 0 2-2.5 67.236 67.236 0 0 0 9-4.5 22.729 22.729 0 0 0 4.5-9 135.16 135.16 0 0 0 8.5-7.5 82.524 82.524 0 0 1 29-4.5v5a307.798 307.798 0 0 1-28 38 229.505 229.505 0 0 0-18 18 24.187 24.187 0 0 0-9 7l-3 2a27.68 27.68 0 0 0-8 6c-4.839 1.916-9.172 4.582-13 8a109.313 109.313 0 0 1-13 5 790.305 790.305 0 0 0-10 7l-4 1a140.721 140.721 0 0 1-9 2.5c-1.442.377-2.442 1.21-3 2.5-6.244 1.119-12.244 2.785-18 5-5.096-.456-9.762.544-14 3h-3a387.705 387.705 0 0 1-64 1 413.02 413.02 0 0 1-36-7.5c-62.796-22.62-107.463-64.787-134-126.5.222-4.342-1.111-8.009-4-11a185.966 185.966 0 0 1-8-31v-1c-3.437-22.969-3.77-45.969-1-69a232.974 232.974 0 0 1 15-52c2.988-2.144 6.488-3.144 10.5-3 11.3.546 22.8.546 34.5 0 10.974-.004 21.64 1.662 32 5v7Z"/><path style="opacity:1" fill="#f5a5a4" d="M375.5 165.5a1444.975 1444.975 0 0 1-54 1.5c.556.383.889.883 1 1.5-1.495.085-2.495-.581-3-2 18.655-1 37.321-1.333 56-1Z"/><path style="opacity:1" fill="#f26160" d="M375.5 165.5h1c-16.971 1.822-34.304 2.656-52 2.5.556.383.889.883 1 1.5a5.727 5.727 0 0 1-3-1c-.111-.617-.444-1.117-1-1.5 18.171-.168 36.171-.668 54-1.5Z"/><path style="opacity:1" fill="#f48785" d="M285.5 177.5c3.931.632 7.265 2.299 10 5-3.931-.632-7.265-2.299-10-5Z"/><path style="opacity:1" fill="#f6a2a1" d="M343.5 177.5c3.931.632 7.265 2.299 10 5-3.931-.632-7.265-2.299-10-5Z"/><path style="opacity:1" fill="#f59291" d="M241.5 174.5c-.84 2.353-2.174 4.353-4 6 .345-2.698 1.678-4.698 4-6Z"/><path style="opacity:1" fill="#f38987" d="M358.5 189.5c-1.533 1.745-3.533 2.745-6 3 1.533-1.745 3.533-2.745 6-3Z"/><path style="opacity:1" fill="#f9c4c4" d="M229.5 192.5c-23.979 1.826-48.313 2.659-73 2.5-1.237.232-2.237.732-3 1.5a20.69 20.69 0 0 0-5 1c2.385-1.763 5.052-3.263 8-4.5 24.331-.5 48.664-.667 73-.5Z"/><path style="opacity:1" fill="#f35557" d="M231.5 189.5c.239 1.967-.094 3.801-1 5.5-25.69.203-51.357.703-77 1.5.763-.768 1.763-1.268 3-1.5 24.687.159 49.021-.674 73-2.5.432-1.21 1.099-2.21 2-3Z"/><path style="opacity:.8" fill="#fa8181" d="M441.5 188.5c2.235 4.287 3.235 8.954 3 14-1.73-4.383-2.73-9.05-3-14Z"/><path style="opacity:1" fill="#f67773" d="M340.5 197.5c-2.483 3.241-5.816 4.908-10 5 2.504-3.143 5.837-4.809 10-5Z"/><path style="opacity:1" fill="#f39190" d="M272.5 202.5c-.641 10.389.026 20.389 2 30-.709.904-1.709 1.237-3 1-.328-10.514.006-20.847 1-31Z"/><path style="opacity:1" fill="#f9cbc9" d="M282.5 197.5c-2.552 2.443-5.552 4.11-9 5v28c3.483-.191 6.816-.857 10-2-2.575 2.075-5.575 3.409-9 4-1.974-9.611-2.641-19.611-2-30 2.656-2.789 5.989-4.456 10-5Z"/><path style="opacity:1" fill="#f36766" d="M324.5 204.5a378.962 378.962 0 0 0 39 3c-14.004.167-28.004 0-42-.5.556-.383.889-.883 1-1.5.342-.838 1.008-1.172 2-1Z"/><path style="opacity:1" fill="#f58a87" d="M133.5 209.5c-.93 2.897-2.597 5.23-5 7 .569-3.219 2.236-5.552 5-7Z"/><path style="opacity:1" fill="#f18c8c" d="M247.5 221.5v-5a1600.65 1600.65 0 0 0-80 1l-2 1c-.086-.996.248-1.829 1-2.5 27.331-.5 54.665-.667 82-.5.295 2.235-.039 4.235-1 6Z"/><path style="opacity:1" fill="#f8dbda" d="M167.5 217.5a1600.65 1600.65 0 0 1 80-1v10l-2 7 1-16h-79Z"/><path style="opacity:1" fill="#f6b6b6" d="M322.5 205.5c-.111.617-.444 1.117-1 1.5 13.996.5 27.996.667 42 .5.667 0 1 .333 1 1v20h-70v-4h-3c1.068-.934 2.401-1.268 4-1v4h68v-19a484.862 484.862 0 0 1-44-1c.505-1.419 1.505-2.085 3-2Z"/><path style="opacity:1" fill="#f37171" d="M364.5 208.5c.991 6.813 1.325 13.813 1 21-23.839.331-47.506-.002-71-1h70v-20Z"/><path style="opacity:1" fill="#f3706f" d="M247.5 226.5c.056 5.231-.611 10.231-2 15v-8l2-7Z"/><path style="opacity:1" fill="#f6a1a0" d="M156.5 232.5c-.58 2.249-1.913 3.915-4 5 .58-2.249 1.913-3.915 4-5Z"/><path style="opacity:.252" fill="#fef2f1" d="M19.5 200.5a185.59 185.59 0 0 1-1 11 261.898 261.898 0 0 0 .5 68c.383.556.883.889 1.5 1v1c.285 1.915-.049 3.581-1 5-3.402-14.082-4.735-28.416-4-43l.5-24c.54-6.584 1.706-12.917 3.5-19Z"/><path style="opacity:.693" fill="#fba4a4" d="M18.5 211.5h1c-2.77 23.031-2.437 46.031 1 69-.617-.111-1.117-.444-1.5-1a261.898 261.898 0 0 1-.5-68Z"/><path style="opacity:1" fill="#f9c9c7" d="M290.5 239.5a84.902 84.902 0 0 0-13 .5 62.8 62.8 0 0 0-8 4.5c5.731-7.09 12.731-8.756 21-5Z"/><path style="opacity:1" fill="#f06260" d="M353.5 239.5c8.818-.993 17.818-1.327 27-1 .216 10.456-1.45 20.456-5 30a545.437 545.437 0 0 0 4-29h-26Z"/><path style="opacity:1" fill="#fefbfb" d="M290.5 239.5a97.46 97.46 0 0 1 12.5 11c.464.594.631 1.261.5 2 2.936 4.605 6.602 8.605 11 12a267.738 267.738 0 0 1 27 28c.825.886 1.825 1.219 3 1a766.541 766.541 0 0 1 4-24c2.726-8.337 4.393-17.004 5-26v-4h26a545.437 545.437 0 0 1-4 29v2c-2.433 5.288-3.766 10.955-4 17a202.245 202.245 0 0 0-3 21c-.975 2.811-1.642 5.811-2 9a4359.023 4359.023 0 0 0-5 12 6.547 6.547 0 0 0-3 3c-.992-.172-1.658.162-2 1-5.846 1.733-11.846 2.4-18 2 .343-1.983-.324-3.317-2-4 0-.667-.333-1-1-1a47.06 47.06 0 0 0-11-12c-1-1.667-2.333-3-4-4-2.266-3.936-5.266-7.269-9-10-7.397-9.397-15.731-17.731-25-25-1.24 9.35-2.574 18.683-4 28-2.08 5.355-3.08 11.022-3 17v1c-1.031 2.461-1.698 5.127-2 8h-25c.58-4.31.914-8.643 1-13 1.244-8.05 2.578-16.05 4-24 2.062-6.726 3.396-13.726 4-21a350.579 350.579 0 0 1 4-23 59.89 59.89 0 0 0 4-8 62.8 62.8 0 0 1 8-4.5 84.902 84.902 0 0 1 13-.5Z"/><path style="opacity:1" fill="#f45b57" d="M126.5 221.5c-3.521 12.683-4.855 25.683-4 39-2.934-12.345-2.434-24.679 1.5-37 .708-.881 1.542-1.547 2.5-2Z"/><path style="opacity:1" fill="#f38382" d="M81.5 239.5a354.564 354.564 0 0 0 1 30c-1.463-5.934-2.13-12.101-2-18.5.001-4.015.335-7.849 1-11.5Z"/><path style="opacity:1" fill="#f8c5c4" d="M353.5 243.5c-.607 8.996-2.274 17.663-5 26a32.462 32.462 0 0 1 .5-8 453.2 453.2 0 0 1 4.5-18Z"/><path style="opacity:1" fill="#f59b9a" d="M269.5 244.5a59.89 59.89 0 0 1-4 8c-.241-3.519 1.093-6.185 4-8Z"/><path style="opacity:1" fill="#f7bcbb" d="M303.5 252.5c4.398 3.395 8.064 7.395 11 12-4.398-3.395-8.064-7.395-11-12Z"/><path style="opacity:1" fill="#f56c67" d="M245.5 241.5a145.053 145.053 0 0 1-.5 17 289.202 289.202 0 0 0-6 46c-.232 1.237-.732 2.237-1.5 3a2132.815 2132.815 0 0 1 5.5-55 305.962 305.962 0 0 1 2.5-11Z"/><path style="opacity:1" fill="#f7c8c7" d="M140.5 257.5h64a3845.544 3845.544 0 0 1-2 30c-19.003.167-38.003 0-57-.5-1.237-.232-2.237-.732-3-1.5a590.466 590.466 0 0 0 58 .5c.881-8.802 1.881-17.636 3-26.5l-63-2Z"/><path style="opacity:1" fill="#f09191" d="M140.5 255.5v2l63 2h-65c-.271-1.88.396-3.213 2-4Z"/><path style="opacity:1" fill="#f48e8e" d="M375.5 270.5a52.53 52.53 0 0 0-2 14l-2 3c.234-6.045 1.567-11.712 4-17Z"/><path style="opacity:1" fill="#f47977" d="M82.5 271.5a127.43 127.43 0 0 1 4 17c-2.433-5.288-3.766-10.955-4-17Z"/><path style="opacity:1" fill="#f49594" d="M261.5 275.5c-.604 7.274-1.938 14.274-4 21 .604-7.274 1.938-14.274 4-21Z"/><path style="opacity:.561" fill="#fb8f8d" d="M447.5 268.5a360.595 360.595 0 0 1-4.5 29c-.383.556-.883.889-1.5 1 .94-10.328 2.94-20.328 6-30Z"/><path style="opacity:1" fill="#f58483" d="M87.5 289.5c1.574 1.602 2.24 3.602 2 6-1.574-1.602-2.24-3.602-2-6Z"/><path style="opacity:1" fill="#f4787d" d="M311.5 304.5c3.734 2.731 6.734 6.064 9 10-3.734-2.731-6.734-6.064-9-10Z"/><path style="opacity:1" fill="#f53a43" d="M311.5 304.5c2.266 3.936 5.266 7.269 9 10a20.69 20.69 0 0 1 1 5c-6.967 1.85-13.967 4.35-21 7.5a110.04 110.04 0 0 1-20 3.5v-6a93.441 93.441 0 0 0 2-17c1.426-9.317 2.76-18.65 4-28 9.269 7.269 17.603 15.603 25 25Z"/><path style="opacity:1" fill="#f53b4a" d="M373.5 284.5c-1.151 4.845-1.151 9.678 0 14.5a53.043 53.043 0 0 0-4 11.5c.029 1.529.696 2.696 2 3.5 8.393 5.106 17.059 8.773 26 11a880.215 880.215 0 0 1 31 3.5c.683-.363 1.35-.696 2-1v2c-21.598 3.51-42.432.51-62.5-9 .158-3.959.325-7.959.5-12 .638-7.09 1.638-14.09 3-21l2-3Z"/><path style="opacity:1" fill="#f58383" d="M282.5 307.5a93.441 93.441 0 0 1-2 17h-1c-.08-5.978.92-11.645 3-17Z"/><path style="opacity:.816" fill="#f97876" d="M28.5 312.5c2.889 2.991 4.222 6.658 4 11-1.777-3.402-3.11-7.069-4-11Z"/><path style="opacity:1" fill="#f597a6" d="M366.5 317.5a81.802 81.802 0 0 1-2 10l-3 2c1.677-4.042 3.344-8.042 5-12Z"/><path style="opacity:1" fill="#f48183" d="M237.5 309.5a861.355 861.355 0 0 1-2 22h-1a73.314 73.314 0 0 1 1-12c.399-3.511 1.066-6.844 2-10Z"/><path style="opacity:1" fill="#f74475" d="M328.5 324.5c5.219 2.579 5.219 5.079 0 7.5-16.48 1.624-32.814 1.791-49 .5a336.565 336.565 0 0 0 37-1.5 39.826 39.826 0 0 0 11-4.5c.798-.457 1.131-1.124 1-2Z"/><path style="opacity:1" fill="#f63d61" d="M320.5 314.5c1.667 1 3 2.333 4 4a17.902 17.902 0 0 0 4 6c.131.876-.202 1.543-1 2a39.826 39.826 0 0 1-11 4.5 336.565 336.565 0 0 1-37 1.5v-8h1v6a110.04 110.04 0 0 0 20-3.5c7.033-3.15 14.033-5.65 21-7.5a20.69 20.69 0 0 0-1-5Z"/><path style="opacity:1" fill="#f63e5e" d="M368.5 308.5c-.175 4.041-.342 8.041-.5 12 20.068 9.51 40.902 12.51 62.5 9-.238 1.904-1.238 3.238-3 4a1276.373 1276.373 0 0 1-54-1.5c-3.359-1.047-6.359-2.547-9-4.5a81.802 81.802 0 0 0 2-10c.358-3.189 1.025-6.189 2-9Z"/><path style="opacity:1" fill="#f6b1c5" d="M253.5 320.5c-.086 4.357-.42 8.69-1 13h25c-8.484.993-17.151 1.326-26 1v-4c.049-3.578.715-6.911 2-10Z"/><path style="opacity:1" fill="#f9ced6" d="M235.5 319.5a73.314 73.314 0 0 0-1 12c.134 1.792-.199 3.458-1 5h-95l-4-2h99a72.367 72.367 0 0 1 .5-12c.232-1.237.732-2.237 1.5-3Z"/><path style="opacity:1" fill="#f7447a" d="M364.5 327.5c2.641 1.953 5.641 3.453 9 4.5 17.991.881 35.991 1.381 54 1.5.098 2.053-.569 3.72-2 5-11.154-.995-22.488-1.328-34-1a38.715 38.715 0 0 1 5-2.5 1955.432 1955.432 0 0 0-36-2.5 5.576 5.576 0 0 0 1-3l3-2Z"/><path style="opacity:1" fill="#f53740" d="M155.5 337.5h26c2.787.977 5.787 1.31 9 1 3.397.698 6.897 1.365 10.5 2a3.647 3.647 0 0 1 1.5-1c27.707 3.046 55.707 4.879 84 5.5 15.703 2.892 29.869 9.058 42.5 18.5a3.647 3.647 0 0 1 1.5-1 60.495 60.495 0 0 0 8 4 70.617 70.617 0 0 1 11 0 26.433 26.433 0 0 0 6.5-3 3.943 3.943 0 0 1 2 1c10.859-8.591 23.026-14.757 36.5-18.5a600.63 600.63 0 0 0 26.5-3.5c.483.948.649 1.948.5 3-.16 1.653-.826 2.986-2 4v-3a82.524 82.524 0 0 0-29 4.5 135.16 135.16 0 0 1-8.5 7.5 22.729 22.729 0 0 1-4.5 9 67.236 67.236 0 0 1-9 4.5 11.38 11.38 0 0 1-2 2.5c-3.779.472-7.112 1.805-10 4-6.815.969-13.482 1.302-20 1-8.249-2.064-15.583-5.897-22-11.5a4.934 4.934 0 0 0-3-.5v-4c-4.479-1.063-7.479-3.729-9-8-8.642-6.199-18.142-8.866-28.5-8a729.113 729.113 0 0 0-36.5-1.5 28.931 28.931 0 0 1-4-1.5c-1.509 2.415-3.176 2.581-5 .5a600.458 600.458 0 0 1-73-7.5Z"/><path style="opacity:1" fill="#f75a8b" d="M324.5 318.5a47.06 47.06 0 0 1 11 12c-1.348 1.98-3.348 3.147-6 3.5l-19 1a113.145 113.145 0 0 0 20 2c5.439 2.371 11.106 3.037 17 2a91.677 91.677 0 0 1 23-3l3-1c-5.433.118-10.433-.715-15-2.5a6.547 6.547 0 0 1 3-3 5.576 5.576 0 0 1-1 3c12.011.723 24.011 1.556 36 2.5a38.715 38.715 0 0 0-5 2.5h-16a84.902 84.902 0 0 0-13 .5 331.954 331.954 0 0 1-21.5 4.5c-5-.458-9.833-1.625-14.5-3.5a733.094 733.094 0 0 1-22-2 826.89 826.89 0 0 1-53-2.5c8.849.326 17.516-.007 26-1 .302-2.873.969-5.539 2-8v7c16.186 1.291 32.52 1.124 49-.5 5.219-2.421 5.219-4.921 0-7.5a17.902 17.902 0 0 1-4-6Z"/><path style="opacity:1" fill="#fac3d6" d="M336.5 331.5c1.676.683 2.343 2.017 2 4 6.154.4 12.154-.267 18-2-.111.617-.444 1.117-1 1.5-8.027 2.841-16.027 3.007-24 .5 2.086-.989 3.753-2.322 5-4Z"/><path style="opacity:1" fill="#f53747" d="M190.5 338.5c31.837.812 63.503 2.312 95 4.5a201.619 201.619 0 0 1 16 3 303.918 303.918 0 0 0 34.5 11.5 551.492 551.492 0 0 1 15 0 1181.139 1181.139 0 0 0 36.5-12.5c12.102-2.311 24.102-3.477 36-3.5-.16 1.653-.826 2.986-2 4a4.934 4.934 0 0 0-.5-3 600.63 600.63 0 0 1-26.5 3.5c-13.474 3.743-25.641 9.909-36.5 18.5a3.943 3.943 0 0 0-2-1 26.433 26.433 0 0 1-6.5 3 70.617 70.617 0 0 0-11 0 60.495 60.495 0 0 1-8-4 3.647 3.647 0 0 0-1.5 1c-12.631-9.442-26.797-15.608-42.5-18.5-28.293-.621-56.293-2.454-84-5.5a3.647 3.647 0 0 0-1.5 1 379.145 379.145 0 0 1-10.5-2Z"/><path style="opacity:1" fill="#f74373" d="M251.5 330.5v4a826.89 826.89 0 0 0 53 2.5 733.094 733.094 0 0 0 22 2 51.226 51.226 0 0 0 14.5 3.5 331.954 331.954 0 0 0 21.5-4.5 84.902 84.902 0 0 1 13-.5c-8.64.536-16.64 3.203-24 8-7.342 1.167-14.675 1.001-22-.5a314.423 314.423 0 0 0-19-6 4824.924 4824.924 0 0 0-77-2.5c.801-1.542 1.134-3.208 1-5h1c4.556 1.942 9.556 2.608 15 2-.237-1.291.096-2.291 1-3Z"/><path style="opacity:1" fill="#f880a9" d="M335.5 330.5c.667 0 1 .333 1 1-1.247 1.678-2.914 3.011-5 4 7.973 2.507 15.973 2.341 24-.5.556-.383.889-.883 1-1.5.342-.838 1.008-1.172 2-1 4.567 1.785 9.567 2.618 15 2.5l-3 1a91.677 91.677 0 0 0-23 3c-5.894 1.037-11.561.371-17-2a113.145 113.145 0 0 1-20-2l19-1c2.652-.353 4.652-1.52 6-3.5Z"/><path style="opacity:1" fill="#f63e5f" d="M138.5 336.5h95c25.517.623 51.183 1.457 77 2.5a314.423 314.423 0 0 1 19 6c7.325 1.501 14.658 1.667 22 .5 7.36-4.797 15.36-7.464 24-8h16c11.512-.328 22.846.005 34 1v2h-1c-1.548-1.294-3.548-1.961-6-2a882.567 882.567 0 0 1-29 1.5 507.097 507.097 0 0 0-30 9c-7.666 2.032-15.333 2.866-23 2.5a338.655 338.655 0 0 1-42-12.5c-37.667-.546-75.334-1.046-113-1.5h-26c-5.858.322-11.525-.011-17-1Z"/><path style="opacity:1" fill="#f5394f" d="M181.5 337.5c37.666.454 75.333.954 113 1.5a338.655 338.655 0 0 0 42 12.5c7.667.366 15.334-.468 23-2.5a507.097 507.097 0 0 1 30-9 882.567 882.567 0 0 0 29-1.5c2.452.039 4.452.706 6 2 0 .667-.333 1-1 1-11.898.023-23.898 1.189-36 3.5a1181.139 1181.139 0 0 1-36.5 12.5 551.492 551.492 0 0 0-15 0 303.918 303.918 0 0 1-34.5-11.5 201.619 201.619 0 0 0-16-3 2168.523 2168.523 0 0 0-95-4.5c-3.213.31-6.213-.023-9-1Z"/><path style="opacity:.459" fill="#fb9a9d" d="M424.5 340.5h1c-.72 4.445-2.72 8.112-6 11v-2c1.174-1.014 1.84-2.347 2-4 1.174-1.014 1.84-2.347 2-4 .667 0 1-.333 1-1Z"/><path style="opacity:.671" fill="#fda7a5" d="M391.5 389.5c-.237 1.291.096 2.291 1 3-.342.838-1.008 1.172-2 1-5.333 3.333-9.667 7.667-13 13-1.459-.067-2.792.266-4 1a229.505 229.505 0 0 1 18-18Z"/><path style="opacity:.027" fill="#ffeeed" d="M390.5 393.5a58.62 58.62 0 0 1-13 13c3.333-5.333 7.667-9.667 13-13Z"/><path style="opacity:.659" fill="#fb9998" d="M373.5 407.5a54.912 54.912 0 0 1-7 7h-2a24.187 24.187 0 0 1 9-7Z"/><path style="opacity:.051" fill="#ffe7e7" d="M377.5 406.5a87.138 87.138 0 0 1-8 7.5 4.934 4.934 0 0 1-3 .5 54.912 54.912 0 0 0 7-7c1.208-.734 2.541-1.067 4-1Z"/><path style="opacity:.28" fill="#fedbda" d="M20.5 281.5a185.966 185.966 0 0 0 8 31c.89 3.931 2.223 7.598 4 11 26.538 61.713 71.204 103.88 134 126.5a413.02 413.02 0 0 0 36 7.5c1.452.802 3.118 1.302 5 1.5 14 .667 28 .667 42 0a336.768 336.768 0 0 0 17-2.5h3c4.783-1.009 9.45-2.009 14-3 5.756-2.215 11.756-3.881 18-5 4.712-.192 8.712-1.859 12-5l4-1a175.679 175.679 0 0 1 10-3.5 337.26 337.26 0 0 0 13-8.5c3.828-3.418 8.161-6.084 13-8 3.391-1.029 6.057-3.029 8-6l3-2h2a18.473 18.473 0 0 1-2 3.5c-65.287 46.664-135.954 56.331-212 29C89.752 420.58 47.252 375.08 25 310.5a156.31 156.31 0 0 1-5.5-24c.951-1.419 1.285-3.085 1-5Z"/><path style="opacity:.6" fill="#fba3a2" d="M313.5 443.5c-3.288 3.141-7.288 4.808-12 5 .558-1.29 1.558-2.123 3-2.5a140.721 140.721 0 0 0 9-2.5Z"/><path style="opacity:.608" fill="#fb8683" d="M340.5 430.5a337.26 337.26 0 0 1-13 8.5 175.679 175.679 0 0 0-10 3.5 790.305 790.305 0 0 1 10-7 109.313 109.313 0 0 0 13-5Z"/><path style="opacity:.725" fill="#fa8c8b" d="M361.5 416.5c-1.943 2.971-4.609 4.971-8 6a27.68 27.68 0 0 1 8-6Z"/><path style="opacity:.843" fill="#f98e8d" d="M283.5 453.5c-4.55.991-9.217 1.991-14 3 4.238-2.456 8.904-3.456 14-3Z"/><path style="opacity:.938" fill="#fa9291" d="M266.5 456.5a336.768 336.768 0 0 1-17 2.5c-14 .667-28 .667-42 0-1.882-.198-3.548-.698-5-1.5a387.705 387.705 0 0 0 64-1Z"/></svg>